<svg width="295" height="63" viewBox="0 0 295 63" fill="none" xmlns="http://www.w3.org/2000/svg">
<g clip-path="url(#clip0_0_9131)">
<path d="M1.66886 38.1989C1.66886 34.6926 2.42743 31.574 3.94457 28.8431C5.46171 26.0786 7.56886 23.9377 10.266 22.4206C12.9969 20.8697 16.0817 20.0943 19.5206 20.0943C23.7349 20.0943 27.3423 21.2069 30.3429 23.432C33.3434 25.6571 35.3494 28.6914 36.3609 32.5349H26.8534C26.1454 31.0514 25.134 29.922 23.8191 29.1466C22.538 28.3711 21.0714 27.9834 19.4194 27.9834C16.756 27.9834 14.5983 28.9106 12.9463 30.7649C11.2943 32.6191 10.4683 35.0971 10.4683 38.1989C10.4683 41.3006 11.2943 43.7786 12.9463 45.6329C14.5983 47.4871 16.756 48.4143 19.4194 48.4143C21.0714 48.4143 22.538 48.0266 23.8191 47.2511C25.134 46.4757 26.1454 45.3463 26.8534 43.8629H36.3609C35.3494 47.7063 33.3434 50.7406 30.3429 52.9657C27.3423 55.1571 23.7349 56.2529 19.5206 56.2529C16.0817 56.2529 12.9969 55.4943 10.266 53.9771C7.56886 52.4263 5.46171 50.2854 3.94457 47.5546C2.42743 44.8237 1.66886 41.7051 1.66886 38.1989ZM138.479 20.4989V56H129.831V34.7094L121.892 56H114.913L106.923 34.6589V56H98.2749V20.4989H108.49L118.453 45.0766L128.314 20.4989H138.479ZM172.259 31.928C172.259 33.9846 171.787 35.8726 170.843 37.592C169.899 39.2777 168.45 40.6431 166.494 41.6883C164.539 42.7334 162.111 43.256 159.212 43.256H153.851V56H145.204V20.4989H159.212C162.044 20.4989 164.438 20.9877 166.393 21.9654C168.348 22.9431 169.815 24.2917 170.793 26.0111C171.77 27.7306 172.259 29.7029 172.259 31.928ZM158.554 36.3783C160.206 36.3783 161.437 35.9906 162.246 35.2151C163.055 34.4397 163.46 33.344 163.46 31.928C163.46 30.512 163.055 29.4163 162.246 28.6409C161.437 27.8654 160.206 27.4777 158.554 27.4777H153.851V36.3783H158.554ZM185.915 20.4989V56H177.267V20.4989H185.915ZM224.446 56H215.799L201.335 34.1026V56H192.687V20.4989H201.335L215.799 42.4974V20.4989H224.446V56ZM254.787 31.7257C254.146 30.5457 253.219 29.6523 252.005 29.0454C250.825 28.4049 249.426 28.0846 247.808 28.0846C245.01 28.0846 242.768 29.0117 241.082 30.866C239.396 32.6866 238.553 35.1309 238.553 38.1989C238.553 41.4691 239.43 44.0314 241.183 45.8857C242.97 47.7063 245.414 48.6166 248.516 48.6166C250.64 48.6166 252.427 48.0771 253.876 46.9983C255.36 45.9194 256.439 44.3686 257.113 42.3457H246.139V35.9737H264.952V44.0146C264.311 46.1723 263.215 48.1783 261.664 50.0326C260.147 51.8869 258.209 53.3871 255.849 54.5334C253.489 55.6797 250.825 56.2529 247.858 56.2529C244.352 56.2529 241.217 55.4943 238.452 53.9771C235.721 52.4263 233.58 50.2854 232.03 47.5546C230.512 44.8237 229.754 41.7051 229.754 38.1989C229.754 34.6926 230.512 31.574 232.03 28.8431C233.58 26.0786 235.721 23.9377 238.452 22.4206C241.183 20.8697 244.302 20.0943 247.808 20.0943C252.056 20.0943 255.63 21.1226 258.529 23.1791C261.462 25.2357 263.401 28.0846 264.345 31.7257H254.787Z" fill="white"/>
<path fill-rule="evenodd" clip-rule="evenodd" d="M98.6383 12.3304H54.8321L62.9558 49.4253H110.274L98.6383 12.3304Z" fill="#365314"/>
<path fill-rule="evenodd" clip-rule="evenodd" d="M91.3658 49.4249L98.6381 12.33L82.93 49.4249H91.3658Z" fill="#A3E635"/>
<path fill-rule="evenodd" clip-rule="evenodd" d="M101.838 49.4253L98.6383 12.3304L110.274 49.4253H101.838Z" fill="#A3E635"/>
<path fill-rule="evenodd" clip-rule="evenodd" d="M54.8275 12.33H98.6337L83.1196 49.4249H39.68L54.8275 12.33Z" fill="#D9F99D"/>
</g>
<defs>
<clipPath id="clip0_0_9131">
<rect width="295" height="63" fill="white"/>
</clipPath>
</defs>
</svg>
