<svg width="236" height="180" viewBox="0 0 236 180" fill="none" xmlns="http://www.w3.org/2000/svg">
<g clip-path="url(#clip0_0_7375)">
<mask id="mask0_0_7375" style="mask-type:luminance" maskUnits="userSpaceOnUse" x="0" y="0" width="236" height="180">
<path fill-rule="evenodd" clip-rule="evenodd" d="M0 0H236V180H0V0Z" fill="white"/>
</mask>
<g mask="url(#mask0_0_7375)">
<path opacity="0.1" fill-rule="evenodd" clip-rule="evenodd" d="M55.9328 150.217C53.9479 150.018 51.8742 149.805 49.9943 150.325C48.1144 150.846 46.5568 152.365 47.1149 153.817C48.362 157.055 55.6806 154.8 59.0551 157.014C60.2601 157.804 60.7295 159.049 61.6706 160.02C63.1931 161.597 65.811 162.332 68.3377 162.737C83.5169 165.168 100.821 158.912 114.125 164.936C118.434 166.888 121.831 169.994 126.556 171.296C132.814 173.021 139.668 171.178 146.144 169.997C154.22 168.535 162.452 168.108 170.638 168.725C176.693 169.187 184.748 169.342 186.686 164.987C187.933 162.187 185.294 159.069 181.791 157.744C178.288 156.419 174.188 156.461 170.276 156.588C162.726 156.856 155.174 157.397 147.624 157.134C133.024 156.62 119.232 150.89 105.015 150.7C88.4583 150.501 72.5669 151.877 55.9328 150.217V150.217Z" fill="#84CC16"/>
<path opacity="0.1" fill-rule="evenodd" clip-rule="evenodd" d="M40.3532 76.4037C38.1353 78.6129 38 82 38 82C38 82 41.4355 81.8077 43.6446 79.5963C45.8536 77.3849 46 74 46 74C46 74 42.5622 74.1988 40.3532 76.4037Z" fill="#84CC16"/>
<path opacity="0.1" fill-rule="evenodd" clip-rule="evenodd" d="M49.2673 18.6233C50.2241 21.9385 53.734 24 53.734 24C53.734 24 55.6936 20.6896 54.7368 17.3743C53.7801 14.0591 50.2701 12 50.2701 12C50.2701 12 48.2997 15.3104 49.2673 18.6233Z" fill="#84CC16"/>
<path opacity="0.1" fill-rule="evenodd" clip-rule="evenodd" d="M186.355 26.4052C184.138 28.6139 184 32 184 32C184 32 187.438 31.8078 189.647 29.5969C191.856 27.3861 192 24 192 24C192 24 188.564 24.2075 186.355 26.4052Z" fill="#84CC16"/>
<path opacity="0.1" fill-rule="evenodd" clip-rule="evenodd" d="M116.024 59.7984C115.747 63.1125 117.997 66 117.997 66C117.997 66 120.7 63.5133 120.976 60.1969C121.253 56.8805 119.003 54 119.003 54C119.003 54 116.3 56.482 116.024 59.7984Z" fill="#84CC16"/>
<path opacity="0.1" fill-rule="evenodd" clip-rule="evenodd" d="M192.024 106.8C191.747 110.113 193.997 113 193.997 113C193.997 113 196.7 110.514 196.976 107.2C197.253 103.887 195.003 101 195.003 101C195.003 101 192.3 103.486 192.024 106.8Z" fill="#84CC16"/>
<path opacity="0.1" fill-rule="evenodd" clip-rule="evenodd" d="M137.118 22.5868C121.989 22.1298 107.579 17.8999 93.8195 13.2599C80.0598 8.61993 66.4311 3.49015 51.6639 1.03424C42.1659 -0.54524 31.3026 -0.76786 23.6514 3.64951C16.2853 7.89816 13.9055 15.2354 12.6268 22.0431C11.6637 27.1635 11.098 32.5534 13.7349 37.3481C15.5676 40.6781 18.817 43.4762 21.0659 46.6632C28.8901 57.7594 23.3592 71.4404 14.8827 82.2834C10.9086 87.3663 6.29168 92.2126 3.2223 97.6236C0.15291 103.035 -1.26607 109.231 1.41994 114.747C4.08023 120.217 10.4224 124.325 17.2929 127.214C31.2465 133.073 47.6828 134.762 63.7217 135.714C99.2149 137.823 134.895 136.909 170.482 135.995C183.652 135.658 196.879 135.315 209.834 133.548C217.03 132.569 224.457 131.013 229.681 127.254C236.311 122.483 237.954 114.405 233.51 108.422C226.058 98.3899 205.458 95.8964 200.243 85.1284C197.377 79.2018 200.32 72.6004 204.488 67.1027C213.427 55.3105 228.41 44.9643 229.197 31.4825C229.74 22.2259 222.537 12.9553 211.401 8.57541C199.729 3.98228 183.54 4.56111 174.933 12.1609C166.061 19.9762 150.478 22.9875 137.118 22.5868V22.5868Z" fill="#84CC16"/>
<path fill-rule="evenodd" clip-rule="evenodd" d="M140.488 151.399V151.744C140.444 151.698 140.42 151.636 140.42 151.572C140.42 151.508 140.444 151.446 140.488 151.399V151.399ZM77.6317 72.2518L77.6458 73.1385L77.5846 73.1669C77.6034 72.8548 77.6175 72.5474 77.6317 72.2518V72.2518ZM83.9234 139.851C83.5142 139.728 83.1197 139.561 82.7469 139.352L83.9234 139.851ZM188.158 67.1254C187.658 66.7506 186.803 68.3181 186.713 68.4046C186.656 68.4597 186.556 68.3795 186.478 68.3668C186.186 68.3196 185.896 68.2465 185.601 68.2249C182.383 67.9893 180.851 68.7722 178.671 67.097C177.472 66.1755 176.366 65.1389 175.215 64.1578C175.124 64.0804 174.874 64.0169 174.946 63.9214C175.075 63.7495 175.697 63.867 175.554 63.7062C171.942 59.6342 168.347 55.511 164.278 51.8951C162.758 50.5438 160.695 49.9657 158.939 48.9394C158.885 48.9078 158.913 48.8168 158.904 48.7549C158.846 48.3612 158.599 47.9459 158.737 47.5726C158.804 47.392 159.041 47.9157 159.229 47.8753C159.363 47.8465 159.201 47.5946 159.243 47.4639C159.669 46.128 159.952 44.7207 160.627 43.4914C161.967 41.0492 164.227 40.2813 163.899 37.4522C163.665 35.4335 163.337 33.6322 161.642 32.4572C161.125 32.0987 160.499 31.9211 159.899 31.7323C159.581 31.6324 159.182 31.7877 158.909 31.5975C157.311 30.4858 156.147 28.7354 154.389 27.8993C152.814 27.1503 150.411 28.8699 149.26 29.4741C148.426 29.9115 147.574 30.3137 146.747 30.7628C146.721 30.7766 146.411 31.0498 146.363 31.1104C146.089 31.4557 145.826 31.8104 145.561 32.1626C145.537 32.194 145.462 32.3417 145.46 32.3471C145.443 32.38 145.426 32.4132 145.41 32.4464C145.369 32.531 145.342 32.5865 145.307 32.6734C145.273 32.7554 145.25 32.8203 145.222 32.9051C145.2 32.9705 145.17 33.0697 145.154 33.1345C145.145 33.1681 145.139 33.2022 145.133 33.2362C145.124 33.2794 145.114 33.3224 145.109 33.3662C145.106 33.3976 145.109 33.4293 145.109 33.4608C145.109 33.5057 145.109 33.5507 145.109 33.5956C145.109 33.6728 145.109 33.7501 145.109 33.8273C145.109 33.8509 145.105 33.8748 145.109 33.8982C145.12 33.9674 145.114 34.045 145.151 34.104C145.43 34.5405 145.793 34.9218 146.05 35.3714C146.076 35.4163 145.967 35.4354 145.937 35.4778C145.309 36.3757 144.507 37.1803 144.08 38.1894C143.653 39.1999 143.547 40.3248 143.427 41.4153C143.373 41.9038 143.998 42.6597 143.561 42.8837C143.084 43.1276 142.7 42.2082 142.189 42.049C140.522 41.5297 138.801 41.1949 137.085 40.8667C134.787 40.4268 132.488 39.9182 130.154 39.7459C129.931 39.7295 130.556 40.2244 130.389 40.3725C130.224 40.5188 130.02 40.1228 129.813 40.0485C128.021 39.4068 126.02 39.2284 124.401 38.2278C123.023 37.3765 122.876 34.8461 122.617 33.5294C122.319 32.0084 120.742 25.3226 120.789 22.7185C120.873 18.1036 121.587 13.5054 121.511 8.89038C121.492 7.72929 121.491 4.93387 120.509 5.55395C116.739 7.93476 114.427 12.0753 111.354 15.3055C110.805 15.8819 110.396 16.7083 109.646 16.9725C109.158 17.1443 108.564 16.0533 108.196 16.4169C107.281 17.3204 107.373 18.8909 106.636 19.9448C105.625 21.3922 99.5558 28.3298 97.5327 29.4741C94.8714 30.9793 91.8627 31.7739 88.9657 32.7514C88.258 32.9902 87.3437 33.5692 86.754 33.1108C86.2552 32.7231 87.1408 31.8519 87.0128 31.2333C86.6983 29.7135 86.4296 28.0547 85.4575 26.8449C84.4883 25.6387 82.7548 25.32 81.5163 24.3926C81.3832 24.2929 81.5726 24.0502 81.5163 23.8937C81.3945 23.5552 81.2531 23.1999 80.9964 22.9478C79.7749 21.7478 78.5753 20.48 77.1211 19.5759C76.5213 19.203 75.729 19.3344 75.0293 19.2378C74.9112 19.2215 74.7909 19.2378 74.6717 19.2378C73.8032 19.2378 73.4599 19.2186 72.2749 19.8391C71.6059 20.1894 71.0052 20.6992 70.5352 21.2903C69.9327 22.048 69.7407 23.0866 69.1093 23.8204C67.947 25.1712 66.6016 26.3645 65.2105 27.4784C64.3629 28.1572 62.9474 28.2182 62.427 29.1714C60.6465 32.4329 59.27 35.9821 58.5753 39.6324C58.2553 41.3138 59.6102 42.9817 59.4741 44.6878C59.3687 46.0092 58.4423 47.1307 57.8812 48.3317C57.318 49.537 56.227 50.58 56.1024 51.9046C55.984 53.1626 56.618 54.4121 57.2035 55.5318C57.4316 55.9679 58.0737 56.0146 58.4294 56.3547C58.6832 56.5973 58.7751 56.9694 58.9941 57.2438C59.7321 58.1685 60.3629 59.2177 61.2954 59.9458C62.2261 60.6725 63.3711 61.0852 64.4694 61.519C64.8187 61.657 65.2159 61.6023 65.5894 61.6419C65.6026 61.6433 65.616 61.6419 65.6294 61.6419C65.6537 61.6419 65.6801 61.6518 65.7023 61.6419C66.3856 61.3357 67.1115 61.1033 67.7399 60.6961C67.979 60.5412 67.7928 59.9302 68.2764 59.9583C68.5603 59.9748 68.8019 60.1785 69.0741 60.261C70.3611 60.6509 71.6461 61.0523 72.9517 61.3747C73.3759 61.4795 74.8944 61.244 75.0176 61.1879C75.4442 60.9937 75.74 60.5895 76.0834 60.2705C76.1555 60.2036 76.2882 59.9398 76.2599 60.034C75.9515 61.0622 73.3666 68.7926 73.2129 70.2206C73.1215 71.0696 73.5037 71.9072 73.7423 72.7271C73.7697 72.8212 73.8029 72.3839 73.8646 72.4599C74.8019 73.6141 76.1008 74.6414 76.467 76.0824C76.9309 77.9076 75.8037 79.89 76.2199 81.7267C77.2212 86.1452 79.0951 90.3209 80.6575 94.5735C81.0675 95.6893 83.0609 97.0774 82.1328 97.8201C80.5176 99.1127 67.7435 97.2303 67.4647 98.6571C66.3645 104.289 69.3128 110.459 72.7823 115.03C74.1267 116.801 74.3348 110.862 75.1634 108.799C75.181 108.755 75.308 108.808 75.2999 108.761C75.2909 108.71 75.1127 108.755 75.1493 108.718C76.1407 107.71 77.3941 106.94 78.2199 105.793C78.4226 105.511 78.0522 105.119 77.9846 104.779C77.9823 104.768 78.0036 104.762 78.0152 104.763C80.4876 104.868 83.1766 104.077 85.4316 105.096C86.7035 105.671 86.9148 107.532 87.1751 108.903C89.0823 118.948 86.9909 119.908 82.4575 130.591C81.4739 132.909 80.5145 135.262 79.1775 137.396C77.8729 139.478 73.3883 141.012 74.5823 143.159C77.3443 148.126 83.056 150.955 88.1351 153.506C89.0919 153.987 90.2077 151.988 90.0528 150.929C89.8727 149.697 87.7375 149.515 87.3775 148.323C86.6852 146.031 87.4848 143.509 87.0975 141.146C86.9856 140.463 85.837 140.123 85.921 139.437C86.8523 131.829 93.5281 124.005 96.2551 117.952C97.2276 115.794 97.546 113.37 97.7727 111.014C97.945 109.223 96.0114 106.719 97.441 105.626C99.4615 104.081 114.245 110.793 106.808 97.1367C103.222 90.5525 95.4862 87.159 90.9375 81.1994C89.9297 79.879 90.6079 77.8618 90.841 76.2172C90.8783 75.9538 91.3774 76.5162 91.6175 76.4016C91.7721 76.3278 91.5045 76.0717 91.5045 75.9004C91.5045 75.8617 91.6236 75.9646 91.6175 75.9264C90.9729 71.8614 90.1226 67.8283 89.5775 63.7488C89.5561 63.5887 89.8572 63.9318 90.0175 63.9521C92.6 64.2788 95.6947 66.3422 97.7821 64.7868C102.029 61.6226 103.734 56.0247 106.617 51.583C106.67 51.5014 105.931 51.8789 105.973 51.6232C106.298 49.6438 110.049 42.6045 105.373 42.4249C102.882 42.3292 103.312 46.9667 102.184 49.19C102.151 49.2561 102.057 48.9847 102.015 49.0458C100.275 51.5822 99.1003 54.5518 96.9774 56.778C94.9079 58.9482 92.2499 57.6599 91.5163 55.2055C91.2114 54.1855 92.004 53.1197 92.0457 52.0559C92.0748 51.3142 91.9827 50.5488 91.7264 49.8522C91.4704 49.1565 90.884 48.6277 90.5422 47.9699C89.7393 46.4246 88.7518 44.9336 88.2975 43.2525C88.1241 42.6109 88.1911 41.6804 88.7422 41.3088C92.3596 38.8696 96.6353 37.5325 100.297 35.1609C102.429 33.7806 104.326 32.0229 106.013 30.1244C108.585 27.2286 110.759 24.0001 113.01 20.8481C113.073 20.7608 112.824 20.6928 112.824 20.5856C112.824 20.4908 113.033 20.4624 113.01 20.3704C112.962 20.1753 108.763 15.4321 114.429 17.8072C115.291 18.1683 114.268 19.6858 114.408 20.6093C114.571 21.6856 115.254 22.6563 115.33 23.7423C115.736 29.5452 114.866 35.4523 115.848 41.1859C116.102 42.6677 117.618 43.7122 118.888 44.5176C121.787 46.3569 125.103 47.4415 128.163 48.9985C128.226 49.0307 128.017 49.163 128.081 49.1947C128.206 49.2572 128.36 49.1664 128.5 49.1664C128.522 49.1664 128.544 49.1793 128.561 49.1947C130.83 51.3303 134.747 52.5605 135.354 55.617C136.614 61.9671 134.417 68.5349 133.676 74.9664C133.244 78.7183 131.977 82.372 131.836 86.1461C131.818 86.6286 132.822 86.2434 133.248 86.4701C133.364 86.5316 133.193 86.7264 133.17 86.8555C132.372 91.4556 131.616 96.0631 130.787 100.658C130.302 103.344 129.516 105.983 129.227 108.697C128.759 113.079 127.323 117.658 128.521 121.899C128.929 123.343 131.535 121.888 133.017 122.119C133.174 122.143 133.007 122.438 132.968 122.591C132.91 122.821 132.859 123.064 132.728 123.262C132.598 123.459 132.294 123.524 132.205 123.743C130.483 127.995 128.843 132.283 127.321 136.611C127.158 137.073 127.296 137.6 127.165 138.072C126.371 140.95 125.976 143.285 124.697 145.653C124.653 145.735 124.844 145.309 124.82 145.4C124.218 147.682 122.913 149.873 122.963 152.232C123.018 154.843 123.133 158.072 125.123 159.763C126.522 160.952 129.628 160.259 130.519 158.654C131.865 156.227 130.307 153.103 130.358 150.328C130.38 149.173 130.607 148.031 130.735 146.883C130.901 145.401 130.601 143.784 131.241 142.437C132.173 140.476 134.148 139.178 135.276 137.323C136.574 135.188 137.234 132.713 138.474 130.544C139.719 128.365 141.54 126.54 142.709 124.32C142.911 123.936 142.51 123.475 142.42 123.05C142.386 122.894 142.337 122.737 142.34 122.577C142.34 122.548 142.421 122.606 142.427 122.577C142.788 120.573 141.415 116.868 143.427 116.55C145.359 116.245 143.232 120.472 143.427 122.419C143.446 122.617 143.876 122.359 144.02 122.497C144.133 122.607 144.005 122.812 143.998 122.97C143.914 124.846 143.949 126.731 143.747 128.598C143.629 129.68 143.237 130.715 143.041 131.785C142.175 136.507 141.177 141.211 140.561 145.972C140.329 147.759 140.826 149.605 140.504 151.378C140.083 153.698 138.355 155.759 138.356 158.117C138.358 160.728 138.524 163.957 140.514 165.648C141.913 166.838 145.02 166.145 145.911 164.539C147.477 161.719 145.309 156.247 145.412 152.811C145.434 152.111 145.661 151.423 145.916 150.77C147.035 147.91 148.624 145.229 149.528 142.293C150.578 138.879 151.018 135.307 151.751 131.811C151.76 131.772 151.743 131.729 151.751 131.69C151.998 130.512 152.196 129.321 152.516 128.16C152.878 126.847 153.389 125.58 153.796 124.28C153.844 124.127 153.723 123.847 153.878 123.807C154.252 123.71 154.916 124.331 155.027 123.961C156.702 118.376 158.101 112.682 158.947 106.912C159.596 102.484 159.342 97.9702 159.495 93.4976C159.501 93.3343 159.368 93.1671 159.422 93.0129C159.448 92.9386 159.651 93.1125 159.657 93.0341C159.922 89.418 159.87 85.7803 160.217 82.1712C160.59 78.2903 160.808 74.3508 161.817 70.5848C162.277 68.8686 163.539 67.4699 164.547 66.0069C164.656 65.8486 164.954 65.6971 165.095 65.8272C166.204 66.8474 167.073 68.1018 168.062 69.2393C168.244 69.4488 168.42 69.6643 168.608 69.8683C168.617 69.8776 168.599 69.8215 168.608 69.8305C168.693 69.9167 168.743 70.175 168.843 70.1071C168.96 70.0278 168.701 69.6141 168.824 69.6839C173.267 72.2114 176.865 75.9203 182.368 75.8956C184.096 75.8878 185.651 74.8179 187.29 74.2712C187.334 74.2566 187.371 74.1979 187.415 74.2121C187.812 74.3401 188.188 74.8471 188.572 74.685C190.179 74.0061 193.074 73.6036 192.979 71.8616C192.856 69.6122 189.96 68.4769 188.158 67.1254Z" fill="url(#paint0_linear_0_7375)"/>
<path fill-rule="evenodd" clip-rule="evenodd" d="M152 47H145V54H152V47Z" fill="#FF7590"/>
<path fill-rule="evenodd" clip-rule="evenodd" d="M136.773 129.454C136.173 132.46 135.283 134.797 133.636 136.174C131.988 137.551 129.675 141.243 129.675 141.243C129.635 146.154 128.34 147.646 128.34 147.646L127.006 148H123.711C123.711 148 123.122 146.35 123.004 145.369C122.964 145.041 123.197 144.492 123.522 143.902C124.7 141.742 125.432 139.366 125.676 136.916L125.829 135.466C125.551 126.467 129.124 123.546 130.623 122.713C130.83 122.598 131.006 122.433 131.136 122.235C131.266 122.036 131.346 121.809 131.369 121.572V121.572L131.635 119L140.499 119.436C140.499 119.436 140.31 120.219 140.647 122.03C140.715 122.405 140.807 122.822 140.929 123.286C141.635 125.995 136.811 129.256 136.773 129.454Z" fill="#8E5362"/>
<path fill-rule="evenodd" clip-rule="evenodd" d="M151.846 124.374C151.547 125.706 151.135 127.008 150.614 128.265C150.16 129.389 149.909 130.589 149.874 131.806C149.874 131.847 149.874 131.887 149.874 131.928C149.761 135.534 149.036 139.093 147.731 142.44C146.452 145.742 144.757 150.04 144.249 150.944C143.403 152.454 143.902 155 143.902 155L139.001 154.642L139.086 146.131C138.575 140.054 140.457 134.44 141.477 131.904C141.889 130.889 142.124 129.808 142.17 128.709L142.402 123.064L142.473 121.394C142.473 121.394 151.138 120.122 151.869 122.15C152.07 122.687 152.022 123.486 151.846 124.374Z" fill="#8E5362"/>
<path opacity="0.1" fill-rule="evenodd" clip-rule="evenodd" d="M142 123L132 122.396L132.286 119L141.84 119.576C141.84 119.576 141.63 120.606 142 123V123Z" fill="black"/>
<path opacity="0.1" fill-rule="evenodd" clip-rule="evenodd" d="M153.84 125L144 123.447L144.075 121.467C144.075 121.467 153.101 119.959 153.862 122.363C154.073 123 154.023 123.948 153.84 125V125Z" fill="black"/>
<path fill-rule="evenodd" clip-rule="evenodd" d="M158.31 106.373L154.407 123L142.858 121.492V115.769L141.86 121.65L128 120.991L128.717 108.115C129.46 105.546 129.979 102.921 130.27 100.267C130.54 97.3581 131.96 90.1827 132.645 86.8118C132.884 85.7006 133.018 85 133.018 85C133.018 85 156.756 89.7929 158.31 91.5328C158.575 91.8298 158.749 92.4608 158.857 93.2983C159.378 97.3628 158.31 106.373 158.31 106.373V106.373Z" fill="#BDD2E8"/>
<path opacity="0.1" fill-rule="evenodd" clip-rule="evenodd" d="M131 108C131 108 139.844 103.111 142 104.143L131 108Z" fill="black"/>
<path opacity="0.1" fill-rule="evenodd" clip-rule="evenodd" d="M135 92C135 92 142.761 97.512 143 99L135 92Z" fill="black"/>
<path opacity="0.1" fill-rule="evenodd" clip-rule="evenodd" d="M133 112.012C133 112.012 138.306 111.815 140 113L133 112.012Z" fill="black"/>
<path opacity="0.1" fill-rule="evenodd" clip-rule="evenodd" d="M143.634 106C143.634 106 145.656 114.693 144.78 117.07C143.903 119.448 143 116.514 143 116.514L143.634 106Z" fill="black"/>
<path fill-rule="evenodd" clip-rule="evenodd" d="M140.257 151C140.257 151 137.571 151.38 138.059 157.451C138.548 163.522 139.28 164.588 140.257 164.663C141.233 164.738 145.994 165.84 145.75 163.6C145.506 161.359 145.261 156.39 145.586 155.63C145.911 154.869 146.472 152.867 145.242 152.373L144.976 153.544C144.976 153.544 142.371 151.303 140.825 152.936C140.759 152.538 140.652 152.146 140.506 151.767C140.352 151.412 140.015 151.228 140.257 151V151Z" fill="#494457"/>
<path fill-rule="evenodd" clip-rule="evenodd" d="M187 74.4649C187 74.4649 186.417 74.8032 185.56 75.2255C184.239 75.878 182.27 76.7369 180.812 76.8641C178.409 77.0752 177.657 77.3151 174.91 75.2758C172.802 73.7116 169.273 71.5308 167.736 70.6L167.067 70.1897L167 70.1489V70.1201L168.275 66.4879L172.788 64L173.908 64.9956L177.243 67.9585C177.243 67.9585 177.764 68.827 178.604 68.767C179.444 68.7071 183.927 69.0957 183.927 69.0957L184.774 69.2397L186.558 69.5468L187 74.4649Z" fill="#8E5362"/>
<path opacity="0.1" fill-rule="evenodd" clip-rule="evenodd" d="M187 73.2368C187 73.2368 186.255 73.5762 185.162 74C184.006 73.5185 182.569 72.6156 183.122 71.13C183.622 69.7937 183.758 68.7512 184.168 68L186.447 68.3082L187 73.2368Z" fill="black"/>
<path fill-rule="evenodd" clip-rule="evenodd" d="M186.303 67.1427C186.303 67.1427 191.356 65.7712 190.98 71.5316C190.604 77.2921 186.71 74.1386 186.71 74.1386C186.71 74.1386 183.399 73.3157 184.096 71.1476C184.793 68.9795 184.591 67.665 186.303 67.1427Z" fill="#8E5362"/>
<path fill-rule="evenodd" clip-rule="evenodd" d="M133 47.7071L127.757 49.9644L127.676 50L127.618 49.9715L127.292 49.8032C125.936 49.1108 121.276 46.742 118.345 45.3359C114.874 43.6761 115.413 42.0162 115.413 42.0162L114.913 24.6283L114.025 21.5055C114.025 21.5055 113.398 10.9205 118.421 8.26715C123.444 5.6138 120.196 23.5992 120.196 23.5992L120.584 27.3362C120.836 29.7268 121.296 32.0894 121.961 34.3952C122.178 35.1533 122.315 35.9332 122.368 36.7214C122.523 39.2491 123.68 39.0807 123.68 39.0807C125.507 39.3748 127.272 39.9892 128.895 40.897C129.498 41.2233 130.076 41.5975 130.621 42.0162L133 47.7071Z" fill="#8E5362"/>
<path fill-rule="evenodd" clip-rule="evenodd" d="M151.418 56L147 55.5263C147 55.5263 148.302 53.5181 148.875 51.5642C148.956 51.2963 149.021 51.0235 149.069 50.7472C149.202 49.9728 149.168 49.2552 148.827 48.7365C147.535 46.7638 156.518 44 156.518 44C156.409 45.0918 156.376 46.1904 156.42 47.2871C156.446 48.0503 156.522 48.8108 156.648 49.5631C156.92 51.0953 157.462 52.5376 158.494 53.2765C161.315 55.2895 151.418 56 151.418 56V56Z" fill="#8E5362"/>
<path opacity="0.1" fill-rule="evenodd" clip-rule="evenodd" d="M151.417 55L147 54.5585C147 54.5585 148.302 52.6865 148.875 50.8653C149.384 51.5651 149.56 51.5497 150.275 51.6887C150.275 51.6887 154.732 52.3267 156.651 49C156.922 50.4283 157.464 51.7726 158.496 52.4614C161.312 54.3377 151.417 55 151.417 55V55Z" fill="black"/>
<path opacity="0.1" fill-rule="evenodd" clip-rule="evenodd" d="M167.743 70.5746C167.738 70.7167 167.744 70.859 167.762 71L167.059 70.1659L167 70.0966L168.292 66.4783L172.865 64L174 64.9918C172.375 65.6251 167.816 67.635 167.743 70.5746L167.743 70.5746Z" fill="black"/>
<path opacity="0.1" fill-rule="evenodd" clip-rule="evenodd" d="M133 46.9911L127.564 48.975H127.42L127 49C127 49 127.031 48.9396 127.082 48.827C127.535 47.8705 129.639 43.2006 128.73 41C129.355 41.2867 129.953 41.6156 130.519 41.9836L133 46.9911Z" fill="black"/>
<path opacity="0.1" fill-rule="evenodd" clip-rule="evenodd" d="M159 93C156.909 92.8232 135.994 90.9972 134.043 88.0903C133.735 87.6167 133.386 87.1677 133 86.7477C133.237 85.6758 133.37 85 133.37 85C133.37 85 156.916 89.6232 158.457 91.3015C158.72 91.5835 158.893 92.1899 159 93Z" fill="black"/>
<path fill-rule="evenodd" clip-rule="evenodd" d="M151.157 53.067C151.157 53.067 155.788 53.7579 157.745 50.1307C157.745 50.1307 161.014 52.8375 162.969 53.0693C164.924 53.3012 174 64.8192 174 64.8192C174 64.8192 166.725 67.1853 167.194 70.971L163.751 66.9487C163.751 66.9487 162.031 66.8683 160.545 71.6808C160.545 71.6808 158.745 74.4397 158.98 83.1941C159.214 91.9486 158.433 94 158.433 94C158.433 94 135.588 92.0291 133.555 88.7946C131.523 85.5602 131.208 87.1384 131.208 87.1384C131.208 87.1384 130.894 80.9866 133.006 76.0179C135.118 71.0491 134.649 56.7746 134.649 56.7746C134.649 56.7746 134.884 49.7545 128 50.3862C128 50.3862 130.894 43.6027 129.565 41C129.565 41 133.525 42.0837 136.346 42.1168C138.077 42.1304 139.784 42.5346 141.34 43.2998C142.187 43.7186 142.969 44.2462 143.412 44.8756C144.741 46.7685 146.933 45.9025 146.933 45.9025C147.485 47.6346 148.168 49.3218 148.975 50.9493C149.066 51.1221 149.158 51.2924 149.251 51.4557C149.388 51.6923 149.529 51.9289 149.669 52.1229C150.233 52.9345 150.392 52.9132 151.157 53.067Z" fill="#FF7590"/>
<path opacity="0.1" fill-rule="evenodd" clip-rule="evenodd" d="M157.892 46.9048C157.644 47.2207 157.367 47.5182 157.065 47.7942C156.305 48.4926 155.396 49.0476 154.393 49.4265C153.389 49.8053 152.311 50.0003 151.222 50C150.94 50.0001 150.658 49.9875 150.378 49.9623C150.514 49.278 150.478 48.6439 150.13 48.1856C148.807 46.4423 158 44 158 44C157.886 44.9647 157.85 45.9355 157.892 46.9048Z" fill="black"/>
<path fill-rule="evenodd" clip-rule="evenodd" d="M160 42.5C160 44.1812 159.501 45.8245 158.567 47.2224C157.633 48.6202 156.306 49.7096 154.753 50.353C153.2 50.9963 151.491 51.1646 149.842 50.8367C148.193 50.5087 146.678 49.6992 145.49 48.5104C144.301 47.3217 143.491 45.8071 143.163 44.1583C142.835 42.5095 143.004 40.8004 143.647 39.2472C144.29 37.6941 145.38 36.3665 146.778 35.4326C148.175 34.4986 149.819 34.0001 151.5 34.0001C152.617 33.9959 153.725 34.2129 154.758 34.6386C155.791 35.0643 156.73 35.6902 157.52 36.4803C158.31 37.2705 158.936 38.2092 159.361 39.2423C159.787 40.2754 160.004 41.3826 160 42.5Z" fill="#8E5362"/>
<path opacity="0.1" fill-rule="evenodd" clip-rule="evenodd" d="M163 61.0102L163.25 67C163.25 67 166.883 64.8466 166.998 62.8005C167.112 60.7545 163 61.0102 163 61.0102V61.0102Z" fill="black"/>
<path opacity="0.1" fill-rule="evenodd" clip-rule="evenodd" d="M144 66C144 66 150.509 75.9138 154.296 76.9197C158.083 77.9255 145.42 69.2144 144 66Z" fill="black"/>
<path opacity="0.1" fill-rule="evenodd" clip-rule="evenodd" d="M150 67C150 67 153.493 71.4456 156 72L150 67Z" fill="black"/>
<path opacity="0.1" fill-rule="evenodd" clip-rule="evenodd" d="M138 77C138 77 145 83.5992 149 84L138 77Z" fill="black"/>
<path opacity="0.1" fill-rule="evenodd" clip-rule="evenodd" d="M159 42.2413C159.001 44.3954 158.158 46.4636 156.651 48L155.749 47.4373C155.4 47.2553 155.099 46.9931 154.87 46.6721C154.572 46.173 154.659 45.5468 154.683 44.9652C154.732 43.7339 154.394 42.4014 153.433 41.6315C151.876 40.3813 149.379 41.0735 147.795 39.8469C147.414 39.5224 147.078 39.1478 146.797 38.7333L145.312 36.7391C145.223 36.6214 145.115 36.5037 145 36.3648C146.156 35.2256 147.622 34.4543 149.214 34.1479C150.806 33.8414 152.453 34.0136 153.947 34.6426C155.442 35.2716 156.718 36.3294 157.614 37.6831C158.511 39.0368 158.988 40.6259 158.986 42.2507L159 42.2413Z" fill="black"/>
<path fill-rule="evenodd" clip-rule="evenodd" d="M145.6 31.8366C146.318 31.3001 147.194 31.0173 148.002 30.6221C148.809 30.227 149.523 29.7242 150.33 29.3875C151.137 29.0507 152.071 28.8532 152.908 29.1338C154.704 29.7377 155.383 32.1936 157.23 32.6246C157.542 32.6964 157.863 32.7032 158.177 32.7503C158.777 32.8616 159.346 33.0963 159.846 33.4387C160.346 33.7812 160.766 34.2238 161.079 34.7371C161.695 35.7728 162.012 36.9531 161.996 38.1516C162.022 38.8168 161.923 39.4809 161.705 40.1114C161.159 41.5773 159.789 42.5808 158.865 43.8492C157.99 45.0629 157.526 46.5146 157.537 48L155.298 46.6373C154.957 46.4645 154.663 46.2143 154.44 45.9077C154.149 45.4318 154.234 44.8347 154.257 44.2802C154.305 43.1061 153.975 41.8355 153.039 41.1014C151.516 39.9093 149.078 40.5693 147.534 39.3998C147.162 39.0903 146.834 38.7332 146.559 38.3379L145.109 36.4365C144.795 36.0234 144.192 35.5093 144.054 35.0065C143.749 33.9244 144.793 32.445 145.6 31.8366Z" fill="#362133"/>
<path opacity="0.1" fill-rule="evenodd" clip-rule="evenodd" d="M155.934 46.2876C155.581 46.1034 155.277 45.8369 155.048 45.5103C154.747 45.0032 154.834 44.3671 154.858 43.7763C154.908 42.5255 154.567 41.1718 153.598 40.3897C152.027 39.1197 149.508 39.8229 147.911 38.5768C147.526 38.2472 147.188 37.8667 146.904 37.4455L145.406 35.4198C145.079 34.9797 144.459 34.4321 144.316 33.8963C144.058 32.9731 144.712 31.7701 145.411 31C144.627 31.7319 143.767 33.1214 144.058 34.157C144.21 34.6927 144.823 35.2404 145.148 35.6805L146.646 37.7063C146.929 38.1274 147.268 38.5079 147.653 38.8375C149.242 40.0836 151.761 39.3804 153.339 40.6504C154.306 41.4325 154.647 42.7862 154.597 44.037C154.574 44.6277 154.486 45.2639 154.787 45.771C155.017 46.0976 155.321 46.3641 155.673 46.5483L157.986 48C157.986 47.8613 157.986 47.7226 158 47.5862L155.934 46.2876Z" fill="black"/>
<path fill-rule="evenodd" clip-rule="evenodd" d="M123.841 144C123.841 144 121.603 144.453 122.062 150.498C122.522 156.543 123.211 157.591 124.131 157.665C125.05 157.74 129.532 158.835 129.302 156.608C129.072 154.381 128.842 149.443 129.148 148.687C129.454 147.931 130.667 145.901 129.509 145.41L128.573 146.614C128.573 146.614 126.121 144.387 124.666 146.01C124.666 146.01 123.306 144.527 123.841 144Z" fill="#494457"/>
<path opacity="0.1" fill-rule="evenodd" clip-rule="evenodd" d="M126 149C126.54 149.208 127.044 149.462 127.582 149.67C128.111 149.896 128.701 150.009 129.299 149.999C129.552 149.996 129.798 149.926 130 149.802" fill="black"/>
<path opacity="0.1" fill-rule="evenodd" clip-rule="evenodd" d="M141 155C141.352 155.229 141.625 155.521 142.022 155.71C142.585 155.976 143.305 155.992 143.992 155.998C144.107 156.005 144.222 155.995 144.33 155.968C144.453 155.921 144.556 155.852 144.631 155.769L145 155.433" fill="black"/>
<path fill-rule="evenodd" clip-rule="evenodd" d="M102.135 51.4571C102.135 51.4571 100.962 40.7903 105.525 43.4158C110.087 46.0412 106.946 50.707 106.946 50.707L105.874 54L102.135 51.4571Z" fill="#FFC1C7"/>
<path fill-rule="evenodd" clip-rule="evenodd" d="M109 18.9514L111.452 16.5584C111.452 16.5584 116.154 3.11402 120.813 6.56711C125.473 10.0202 114.908 18.7516 114.908 18.7516L112.107 22L109 18.9514Z" fill="#FFC1C7"/>
<path fill-rule="evenodd" clip-rule="evenodd" d="M74.1212 69.2613L74 71.9376C74 71.9376 76.2221 75.7169 77.1502 75.9932C78.0782 76.2696 77.9983 68 77.9983 68L74.1212 69.2613Z" fill="#FF5374"/>
<path opacity="0.1" fill-rule="evenodd" clip-rule="evenodd" d="M74.1212 69.2613L74 71.9376C74 71.9376 76.2221 75.7169 77.1502 75.9932C78.0782 76.2696 77.9983 68 77.9983 68L74.1212 69.2613Z" fill="black"/>
<path fill-rule="evenodd" clip-rule="evenodd" d="M79 67L79.1586 77H90L89.1838 71.1739L79 67Z" fill="#FFC1C7"/>
<path fill-rule="evenodd" clip-rule="evenodd" d="M80.1766 91L80.6715 94.1554L86.867 108.439C86.867 108.439 89.6786 112.936 87.3983 116.724C85.118 120.511 82.7625 126.429 82.3817 130.018C82.0009 133.606 79 137.119 79 137.119L85.5376 140C85.5376 140 85.9937 134.359 87.8179 131.715C89.6421 129.071 95.4934 117.434 95.4934 117.434C95.4934 117.434 97.3564 115.696 96.9391 110.529C96.5218 105.361 96.5583 101.73 96.5583 101.73L95.9129 93.4855L80.1766 91Z" fill="#575988"/>
<path opacity="0.1" fill-rule="evenodd" clip-rule="evenodd" d="M80.1766 91L80.6715 94.1554L86.867 108.439C86.867 108.439 89.6786 112.936 87.3983 116.724C85.118 120.511 82.7625 126.429 82.3817 130.018C82.0009 133.606 79 137.119 79 137.119L85.5376 140C85.5376 140 85.9937 134.359 87.8179 131.715C89.6421 129.071 95.4934 117.434 95.4934 117.434C95.4934 117.434 97.3564 115.696 96.9391 110.529C96.5218 105.361 96.5583 101.73 96.5583 101.73L95.9129 93.4855L80.1766 91Z" fill="black"/>
<path fill-rule="evenodd" clip-rule="evenodd" d="M79.3397 137C79.3397 137 72.0826 139.189 74.489 142.788C76.8954 146.387 84.7039 153.229 87.858 152.994C91.0122 152.759 89.751 150.451 89.751 150.451L87.1079 147.87C87.1079 147.87 86.6347 142.396 86.8335 140.794C87.0322 139.191 84.5856 138.448 84.2685 139.386C83.9514 140.325 79.3397 137 79.3397 137Z" fill="#C4747B"/>
<path fill-rule="evenodd" clip-rule="evenodd" d="M85.4116 73L79.783 73.6467C79.2801 73.7044 78.8164 73.9561 78.4836 74.3519C78.1509 74.7477 77.9734 75.2588 77.9863 75.784C78.0465 78.1209 78.0859 81.8378 77.771 82.5158C77.3079 83.5183 75.8817 90.6515 82.0543 95.4984L90.4289 98.2632L77 99.2657L77.426 107L79.5098 105.798L104.978 107C104.978 107 112.195 106.238 107.294 98.1045C102.392 89.9712 91.9755 81.9965 91.9755 81.9965L91.8597 75.6638L91.0864 73.8222L85.4116 73Z" fill="#575988"/>
<path opacity="0.1" fill-rule="evenodd" clip-rule="evenodd" d="M92 97C92.9462 96.3404 93.9675 96 95 96C96.0325 96 97.0538 96.3404 98 97H92Z" fill="black"/>
<path fill-rule="evenodd" clip-rule="evenodd" d="M76.8167 98.4376C76.8167 98.4376 68.0426 97.2291 68.001 98.8287C67.9594 100.428 69.2254 116.003 73.43 114.949C77.6346 113.895 75.8372 108.743 75.8372 108.743L78.9815 105.855C78.9815 105.855 79.3072 104.255 77.2257 104.41L76.8167 98.4376Z" fill="#C4747B"/>
<path fill-rule="evenodd" clip-rule="evenodd" d="M90.5844 53.6865L93.7895 57.414C93.7895 57.414 95.1861 59.1821 96.8452 56.4919C98.5043 53.8017 101.599 49 101.599 49C101.599 49 105.032 52.0728 105.938 51.4597C106.843 50.8465 97.6012 64.2559 97.6012 64.2559C97.6012 64.2559 94.6587 68.6726 90.2811 63.449L89 62.8335L90.5844 53.6865Z" fill="#FF5374"/>
<path opacity="0.1" fill-rule="evenodd" clip-rule="evenodd" d="M90.5844 53.6865L93.7895 57.414C93.7895 57.414 95.1861 59.1821 96.8452 56.4919C98.5043 53.8017 101.599 49 101.599 49C101.599 49 105.032 52.0728 105.938 51.4597C106.843 50.8465 97.6012 64.2559 97.6012 64.2559C97.6012 64.2559 94.6587 68.6726 90.2811 63.449L89 62.8335L90.5844 53.6865Z" fill="black"/>
<path fill-rule="evenodd" clip-rule="evenodd" d="M81 39C84.866 39 88 35.866 88 32C88 28.134 84.866 25 81 25C77.134 25 74 28.134 74 32C74 35.866 77.134 39 81 39Z" fill="#FFC1C7"/>
<path opacity="0.1" fill-rule="evenodd" clip-rule="evenodd" d="M80.4327 35.9639C80.4327 35.9639 74.6263 38.794 75.3134 43.7466C76.0006 48.6992 76.1151 54.949 76.1151 54.949C76.1151 54.949 78.7515 58.9583 75.2562 66.6231C75.2562 66.6231 73.023 70.5144 74.5118 73.3445C74.5118 73.3445 76.1632 68.8635 80.4327 72.1653C84.7021 75.467 91.5758 77 91.5758 77C91.5758 77 88.0256 60.9629 90.2015 58.7224C90.2015 58.7224 93.9808 52.9444 90.5451 49.2888C87.1094 45.6333 88.8273 42.2137 88.8273 42.2137L99.8605 36.1219C99.8605 36.1219 102.188 36.1597 105.319 31.1292C107.346 27.9145 109.578 24.8418 112 21.9314C112 21.9314 109.632 18.2759 107.419 18C107.419 18 106.54 18.9434 105.93 21.4999C105.605 22.8559 103.395 25.1224 101.395 26.9501C99.975 28.2472 98.6053 29.5939 97.2379 30.9594C96.2255 31.9617 93.9717 33.3956 89.0563 34.2069C80.9663 35.5347 80.4327 35.9639 80.4327 35.9639Z" fill="black"/>
<path fill-rule="evenodd" clip-rule="evenodd" d="M80.4327 34.9639C80.4327 34.9639 74.6263 37.794 75.3134 42.7466C76.0006 47.6992 76.1151 53.949 76.1151 53.949C76.1151 53.949 78.7515 57.9583 75.2562 65.6231C75.2562 65.6231 73.023 69.5144 74.5118 72.3445C74.5118 72.3445 76.1632 67.8635 80.4327 71.1653C84.7021 74.467 91.5758 76 91.5758 76C91.5758 76 88.0256 59.9629 90.2015 57.7224C90.2015 57.7224 93.9808 51.9444 90.5451 48.2888C87.1094 44.6333 88.8273 41.2137 88.8273 41.2137L99.8605 35.1219C99.8605 35.1219 102.188 35.1597 105.319 30.1292C107.346 26.9145 109.578 23.8418 112 20.9314C112 20.9314 109.632 17.2759 107.419 17C107.419 17 106.54 17.9434 105.93 20.4999C105.605 21.8559 103.395 24.1224 101.395 25.9501C99.975 27.2472 98.6053 28.5939 97.2379 29.9594C96.2255 30.9617 93.9717 32.3956 89.0563 33.2069C80.9663 34.5347 80.4327 34.9639 80.4327 34.9639Z" fill="#FF5374"/>
<path opacity="0.1" fill-rule="evenodd" clip-rule="evenodd" d="M86 65C86 65 90.876 71.8235 91 73C91.0025 73 90.2584 65.6659 86 65Z" fill="black"/>
<path opacity="0.1" fill-rule="evenodd" clip-rule="evenodd" d="M79 42C79 42 82.2721 44.0138 87 42.3259C85.6933 42.5528 84.3099 42.6409 82.9343 42.5849C81.5587 42.5288 80.2199 42.3298 79 42Z" fill="black"/>
<path opacity="0.1" fill-rule="evenodd" clip-rule="evenodd" d="M81.985 23.6141C81.9025 23.2612 81.7314 22.9365 81.4888 22.6721C80.4505 21.3368 79.3225 19.9662 77.7765 19.3327C76.7502 18.9397 75.6282 18.8936 74.5746 19.2012C73.521 19.5089 72.591 20.1541 71.9208 21.0424C71.3649 21.8102 71.0341 22.7239 70.554 23.5458C69.6672 25.0671 68.2958 26.2399 66.8209 27.1678C65.9319 27.7259 64.9946 28.2087 64.1561 28.8422C61.1077 31.143 59.6995 35.3961 60.4668 39.2042C60.8045 40.8715 61.5189 42.5153 61.3259 44.2085C61.1766 45.5226 60.4943 46.7001 59.8029 47.8164C59.1114 48.9326 58.374 50.063 58.0983 51.3489C57.8226 52.6347 58.1121 54.1584 59.1527 54.9379C59.5364 55.2252 59.9981 55.4089 60.3266 55.7527C60.544 56.0204 60.7256 56.3166 60.8665 56.6335C61.4137 57.6684 62.161 58.5781 63.0628 59.3069C63.9645 60.0357 65.0017 60.5684 66.1111 60.8725C67.0989 61.1386 68.4244 61.042 68.7851 60.0623C68.8265 59.8894 68.889 59.7224 68.9712 59.5654C69.2974 59.0944 70.0164 59.3582 70.5218 59.629C71.6723 60.2456 72.9329 60.6165 74.2272 60.7194C74.7406 60.7888 75.2628 60.7248 75.7457 60.5333C76.1535 60.3211 76.5044 60.0098 76.768 59.6267C77.9764 58.0135 78.3232 55.9058 78.53 53.8828C78.6655 52.5664 78.7597 51.2264 78.5139 49.9265C78.1234 47.8399 76.8852 45.89 77.0689 43.7752C77.2642 41.5144 79.0538 39.6657 79.3271 37.4167C79.4661 36.2392 79.1792 35.0503 78.5208 34.075C78.2778 33.7738 78.0719 33.4432 77.9074 33.0906C77.829 32.9123 77.8046 32.7139 77.8374 32.5212C77.8702 32.3285 77.9586 32.1503 78.0912 32.0097C78.2367 31.9046 78.3982 31.825 78.569 31.7742C80.0462 31.1925 80.8341 29.6759 80.9398 28.1239C80.9811 27.5352 80.9398 26.9935 81.0983 26.4189C81.351 25.5311 82.116 24.5608 81.985 23.6141V23.6141Z" fill="black"/>
<path fill-rule="evenodd" clip-rule="evenodd" d="M81.985 23.6141C81.9025 23.2612 81.7314 22.9365 81.4888 22.6721C80.4505 21.3368 79.3225 19.9662 77.7765 19.3327C76.7502 18.9397 75.6282 18.8936 74.5746 19.2012C73.521 19.5089 72.591 20.1541 71.9208 21.0424C71.3649 21.8102 71.0341 22.7239 70.554 23.5458C69.6672 25.0671 68.2958 26.2399 66.8209 27.1678C65.9319 27.7259 64.9946 28.2087 64.1561 28.8422C61.1077 31.143 59.6995 35.3961 60.4668 39.2042C60.8045 40.8715 61.5189 42.5153 61.3259 44.2085C61.1766 45.5226 60.4943 46.7001 59.8029 47.8164C59.1114 48.9326 58.374 50.063 58.0983 51.3489C57.8226 52.6347 58.1121 54.1584 59.1527 54.9379C59.5364 55.2252 59.9981 55.4089 60.3266 55.7527C60.544 56.0204 60.7256 56.3166 60.8665 56.6335C61.4137 57.6684 62.161 58.5781 63.0628 59.3069C63.9645 60.0357 65.0017 60.5684 66.1111 60.8725C67.0989 61.1386 68.4244 61.042 68.7851 60.0623C68.8265 59.8894 68.889 59.7224 68.9712 59.5654C69.2974 59.0944 70.0164 59.3582 70.5218 59.629C71.6723 60.2456 72.9329 60.6165 74.2272 60.7194C74.7406 60.7888 75.2628 60.7248 75.7457 60.5333C76.1535 60.3211 76.5044 60.0098 76.768 59.6267C77.9764 58.0135 78.3232 55.9058 78.53 53.8828C78.6655 52.5664 78.7597 51.2264 78.5139 49.9265C78.1234 47.8399 76.8852 45.89 77.0689 43.7752C77.2642 41.5144 79.0538 39.6657 79.3271 37.4167C79.4661 36.2392 79.1792 35.0503 78.5208 34.075C78.2778 33.7738 78.0719 33.4432 77.9074 33.0906C77.829 32.9123 77.8046 32.7139 77.8374 32.5212C77.8702 32.3285 77.9586 32.1503 78.0912 32.0097C78.2367 31.9046 78.3982 31.825 78.569 31.7742C80.0462 31.1925 80.8341 29.6759 80.9398 28.1239C80.9811 27.5352 80.9398 26.9935 81.0983 26.4189C81.351 25.5311 82.116 24.5608 81.985 23.6141V23.6141Z" fill="#BB7684"/>
<g opacity="0.1">
<path opacity="0.1" fill-rule="evenodd" clip-rule="evenodd" d="M67.2654 60.1541C67.1998 60.2469 67.1492 60.3452 67.1148 60.4471C66.944 60.7916 66.4977 60.9499 66 60.9888C66.6924 61.0416 67.4325 60.9152 67.6658 60.4471C67.7002 60.3452 67.7508 60.2469 67.8163 60.1541C67.8626 60.1031 67.926 60.0623 68 60.036C67.7208 59.9749 67.4343 59.9777 67.2654 60.1541V60.1541Z" fill="black"/>
<path opacity="0.1" fill-rule="evenodd" clip-rule="evenodd" d="M79.9864 23.6494C79.9133 23.2933 79.7574 22.966 79.5348 22.7014C78.5899 21.3577 77.5635 19.9784 76.1566 19.3408C75.5452 19.0702 74.888 18.9584 74.2334 19.0138C74.6778 19.0455 75.1151 19.1559 75.5295 19.3408C76.9363 19.9784 77.9628 21.3577 78.9077 22.7014C79.1302 22.966 79.2861 23.2933 79.3592 23.6494C79.4784 24.5974 78.7843 25.5809 78.5544 26.4578C78.4018 27.0361 78.4457 27.5788 78.4101 28.1736C78.3119 29.7331 77.5969 31.2546 76.2507 31.8471C76.0952 31.8983 75.9482 31.9783 75.8159 32.0841C75.6951 32.2261 75.6147 32.4059 75.5853 32.6003C75.5558 32.7948 75.5786 32.9947 75.6507 33.1742C75.7996 33.529 75.9863 33.8617 76.2068 34.1649C76.8065 35.1453 77.0683 36.3409 76.9426 37.5255C76.6918 39.7935 75.0612 41.6516 74.8856 43.9243C74.7184 46.0573 75.8472 48.0149 76.2005 50.1123C76.4221 51.4205 76.3385 52.769 76.2152 54.0938C76.027 56.1296 75.7134 58.2531 74.6118 59.8741C74.3728 60.2596 74.0541 60.5729 73.6836 60.7865C73.467 60.8942 73.2358 60.9591 73 60.9785C73.4442 61.0385 73.8946 60.9725 74.3107 60.7865C74.6819 60.5786 75.0026 60.2711 75.2452 59.8907C76.3468 58.2697 76.6604 56.1462 76.8486 54.1104C76.9719 52.7856 77.0576 51.4371 76.8339 50.1289C76.4806 48.0315 75.3518 46.0668 75.519 43.9409C75.6988 41.6634 77.3252 39.8054 77.576 37.5421C77.7017 36.3575 77.4399 35.1618 76.8402 34.1815C76.6197 33.8783 76.433 33.5456 76.2841 33.1908C76.2121 33.0113 76.1892 32.8113 76.2187 32.6169C76.2482 32.4225 76.3285 32.2426 76.4493 32.1007C76.5817 31.9949 76.7286 31.9148 76.8841 31.8637C78.2304 31.2759 78.9453 29.7497 79.0436 28.1902C79.0791 27.5954 79.0435 27.0527 79.1878 26.4744C79.4115 25.5809 80.1055 24.6045 79.9864 23.6494V23.6494Z" fill="black"/>
</g>
<path opacity="0.1" fill-rule="evenodd" clip-rule="evenodd" d="M73 107C73.4957 107.427 74.1338 107.735 74.8412 107.889C75.5486 108.043 76.2968 108.037 77 107.871" fill="black"/>
<path opacity="0.1" fill-rule="evenodd" clip-rule="evenodd" d="M87 148C86.8615 148.409 86.7003 148.704 86.5277 148.863C86.355 149.023 86.175 149.043 86 148.923" fill="black"/>
<path opacity="0.1" fill-rule="evenodd" clip-rule="evenodd" d="M24.5 156C28.0899 156 31 155.552 31 155C31 154.448 28.0899 154 24.5 154C20.9102 154 18 154.448 18 155C18 155.552 20.9102 156 24.5 156Z" fill="#84CC16"/>
<path fill-rule="evenodd" clip-rule="evenodd" d="M196.5 176C200.09 176 203 175.552 203 175C203 174.448 200.09 174 196.5 174C192.91 174 190 174.448 190 175C190 175.552 192.91 176 196.5 176Z" fill="#84CC16"/>
<path opacity="0.1" fill-rule="evenodd" clip-rule="evenodd" d="M196.5 156C200.09 156 203 155.552 203 155C203 154.448 200.09 154 196.5 154C192.91 154 190 154.448 190 155C190 155.552 192.91 156 196.5 156Z" fill="#84CC16"/>
<path opacity="0.1" fill-rule="evenodd" clip-rule="evenodd" d="M42.5 165C46.0898 165 49 164.552 49 164C49 163.448 46.0898 163 42.5 163C38.9102 163 36 163.448 36 164C36 164.552 38.9102 165 42.5 165Z" fill="#84CC16"/>
<path fill-rule="evenodd" clip-rule="evenodd" d="M216.5 166C221.747 166 226 165.105 226 164C226 162.895 221.747 162 216.5 162C211.253 162 207 162.895 207 164C207 165.105 211.253 166 216.5 166Z" fill="#84CC16"/>
<path opacity="0.1" fill-rule="evenodd" clip-rule="evenodd" d="M82 180C93.598 180 103 178.433 103 176.5C103 174.567 93.598 173 82 173C70.402 173 61 174.567 61 176.5C61 178.433 70.402 180 82 180Z" fill="#84CC16"/>
<path fill-rule="evenodd" clip-rule="evenodd" d="M221.037 161.496C221.483 161.132 221.808 160.643 221.97 160.091C222.089 159.533 221.851 158.866 221.319 158.662C220.721 158.434 220.082 158.846 219.598 159.266C219.114 159.686 218.558 160.159 217.924 160.072C218.25 159.777 218.494 159.402 218.632 158.985C218.77 158.568 218.797 158.122 218.711 157.691C218.683 157.513 218.608 157.345 218.492 157.206C218.159 156.852 217.559 157.005 217.16 157.284C215.897 158.172 215.544 159.885 215.537 161.428C215.411 160.872 215.518 160.292 215.515 159.729C215.513 159.167 215.355 158.516 214.874 158.218C214.576 158.054 214.241 157.971 213.901 157.975C213.333 157.956 212.701 158.012 212.312 158.427C211.826 158.943 211.955 159.807 212.375 160.368C212.796 160.928 213.432 161.29 214.018 161.683C214.49 161.962 214.892 162.345 215.194 162.801C215.229 162.865 215.259 162.931 215.282 163H218.842C219.638 162.6 220.376 162.094 221.037 161.496Z" fill="#84CC16"/>
<path fill-rule="evenodd" clip-rule="evenodd" d="M201.039 172.487C201.484 172.124 201.809 171.635 201.97 171.085C202.089 170.528 201.853 169.874 201.318 169.659C200.721 169.431 200.081 169.843 199.598 170.262C199.114 170.68 198.558 171.153 197.923 171.065C198.25 170.771 198.494 170.398 198.632 169.981C198.77 169.565 198.797 169.12 198.711 168.69C198.685 168.512 198.609 168.344 198.492 168.206C198.162 167.852 197.559 168.005 197.163 168.283C195.899 169.17 195.547 170.879 195.539 172.419C195.411 171.864 195.518 171.286 195.515 170.724C195.513 170.162 195.355 169.513 194.874 169.216C194.575 169.056 194.24 168.976 193.901 168.985C193.333 168.966 192.701 169.022 192.312 169.436C191.826 169.952 191.955 170.814 192.375 171.373C192.796 171.932 193.432 172.293 194.021 172.685C194.491 172.965 194.892 173.346 195.194 173.801C195.229 173.865 195.259 173.931 195.282 174H198.842C199.639 173.596 200.378 173.087 201.039 172.487H201.039Z" fill="#84CC16"/>
<path fill-rule="evenodd" clip-rule="evenodd" d="M52.6189 121.03C52.2106 119.173 51.6196 117.355 50.8536 115.6L49.0206 116.4C49.7343 118.036 50.2844 119.728 50.6645 121.455C51.4139 125.009 50.9008 128.694 49.1958 131.962H49.1958L49.1925 131.969C46.9385 136.366 46.7843 141.484 47.1551 145.418C47.3418 147.399 47.6647 149.111 47.9412 150.33C48.0796 150.94 48.2067 151.428 48.3 151.765C48.3467 151.934 48.3849 152.066 48.4119 152.157C48.4254 152.202 48.4361 152.237 48.4436 152.262L48.4525 152.29L48.4551 152.299L48.4559 152.301L48.4562 152.302C48.4563 152.302 48.4564 152.303 49.4095 152C50.3626 151.697 50.3627 151.698 50.3627 151.698L50.3626 151.697L50.3613 151.693L50.3551 151.673C50.3493 151.654 50.3404 151.625 50.3287 151.586C50.3054 151.507 50.2708 151.389 50.2278 151.233C50.1419 150.922 50.0225 150.464 49.8916 149.887C49.6296 148.732 49.3231 147.107 49.1463 145.23C48.7901 141.452 48.9722 136.785 50.9707 132.884C52.8866 129.21 53.4679 125.052 52.6207 121.038H52.6207L52.6189 121.03ZM50.077 132.422L49.1958 131.962L50.0827 132.425L50.077 132.422Z" fill="#535461"/>
<path fill-rule="evenodd" clip-rule="evenodd" d="M51.9988 110.59C51.9988 111.978 49.4988 116 49.4988 116C49.4988 116 47.0012 111.978 47.0012 110.59C46.9909 110.254 47.0479 109.919 47.1689 109.605C47.2898 109.291 47.4722 109.005 47.7053 108.763C47.9383 108.522 48.2173 108.33 48.5256 108.199C48.8339 108.068 49.1652 108 49.5 108C49.8348 108 50.1661 108.068 50.4744 108.199C50.7827 108.33 51.0617 108.522 51.2947 108.763C51.5278 109.005 51.7102 109.291 51.8311 109.605C51.9521 109.919 52.0091 110.254 51.9988 110.59Z" fill="#84CC16"/>
<path fill-rule="evenodd" clip-rule="evenodd" d="M57.5935 117.823C56.7576 118.986 52 121 52 121C52 121 52.0867 116.251 52.9226 115.09C53.3333 114.55 53.9609 114.177 54.6719 114.049C55.3829 113.92 56.1212 114.048 56.7297 114.404C57.3382 114.76 57.7689 115.317 57.9302 115.955C58.0915 116.594 57.9707 117.264 57.5935 117.823Z" fill="#84CC16"/>
<path fill-rule="evenodd" clip-rule="evenodd" d="M55.734 130.665C54.543 131.283 50 130.857 50 130.857C50 130.857 52.3662 126.851 53.5573 126.235C54.1265 125.961 54.7775 125.925 55.372 126.136C55.9664 126.347 56.4574 126.787 56.7408 127.364C57.0241 127.94 57.0775 128.608 56.8895 129.224C56.7015 129.84 56.287 130.357 55.734 130.665V130.665Z" fill="#84CC16"/>
<path fill-rule="evenodd" clip-rule="evenodd" d="M53.1913 141.743C52.2007 142.615 48 143 48 143C48 143 49.5471 138.323 50.5293 137.448C51.0059 137.068 51.5866 136.922 52.1511 137.04C52.7156 137.157 53.2206 137.529 53.5616 138.078C53.9027 138.627 54.0535 139.312 53.983 139.991C53.9125 140.669 53.626 141.289 53.1829 141.723L53.1913 141.743Z" fill="#84CC16"/>
<path fill-rule="evenodd" clip-rule="evenodd" d="M46.6815 120.108C47.6228 121.037 52 122 52 122C52 122 50.9287 117.57 49.9829 116.641C49.5279 116.213 48.927 115.984 48.3082 116.001C47.6895 116.018 47.1019 116.281 46.6707 116.733C46.2395 117.186 45.9988 117.791 46 118.422C46.0012 119.052 46.2441 119.657 46.677 120.108H46.6815Z" fill="#84CC16"/>
<path fill-rule="evenodd" clip-rule="evenodd" d="M43.2823 132.667C44.4705 133.282 49 132.857 49 132.857C49 132.857 46.6396 128.858 45.4515 128.243C44.8825 127.963 44.2294 127.923 43.6323 128.133C43.0353 128.342 42.5418 128.784 42.2579 129.363C41.974 129.942 41.9223 130.612 42.1138 131.23C42.3053 131.848 42.7248 132.364 43.2823 132.667Z" fill="#84CC16"/>
<path fill-rule="evenodd" clip-rule="evenodd" d="M42.8087 143.742C43.7993 144.618 48 145 48 145C48 145 46.4529 140.321 45.4707 139.448C44.9941 139.068 44.4134 138.922 43.8489 139.04C43.2844 139.157 42.7794 139.529 42.4383 140.079C42.0973 140.628 41.9465 141.313 42.017 141.992C42.0875 142.671 42.3739 143.291 42.8171 143.725L42.8087 143.742Z" fill="#84CC16"/>
<path fill-rule="evenodd" clip-rule="evenodd" d="M42 149.958C42 149.958 46.0751 149.152 47.1636 148.077C48.252 147.002 53.1393 145.123 53.6824 146.466C54.2254 147.809 61.0181 152.376 56.3999 153.183C51.7818 153.989 45.5321 154.257 44.1745 153.721C42.8169 153.185 42 149.958 42 149.958Z" fill="#A8A8A8"/>
<path opacity="0.2" fill-rule="evenodd" clip-rule="evenodd" d="M56.407 153.702C51.7888 154.493 45.5392 154.756 44.1816 154.227C43.1456 153.827 42.4263 151.901 42.1429 151L42 151.035C42 151.035 42.8146 154.197 44.1745 154.725C45.5345 155.254 51.7817 154.988 56.3998 154.197C57.7336 153.965 58.1147 153.434 57.9718 152.755C57.8646 153.19 57.4002 153.532 56.407 153.702Z" fill="black"/>
<path fill-rule="evenodd" clip-rule="evenodd" d="M197.305 139C197.305 139 198.506 140.767 196.752 143.423C194.997 146.079 193.551 148.337 194.13 150C194.13 150 196.778 145.049 198.937 144.98C201.096 144.912 199.671 141.971 197.305 139Z" fill="#84CC16"/>
<path opacity="0.1" fill-rule="evenodd" clip-rule="evenodd" d="M198.271 139C198.377 139.171 198.461 139.358 198.52 139.555C200.646 142.329 201.778 144.92 199.734 144.984C197.831 145.045 195.548 148.826 195 149.781C195.018 149.855 195.039 149.928 195.064 150C195.064 150 197.742 145.052 199.926 144.984C202.109 144.915 200.664 141.969 198.271 139Z" fill="black"/>
<path fill-rule="evenodd" clip-rule="evenodd" d="M200.231 142.263C200.231 142.67 200.178 143 200.114 143C200.051 143 200 142.678 200 142.263C200 141.848 200.064 142.048 200.127 142.048C200.191 142.048 200.231 141.857 200.231 142.263Z" fill="#FFD037"/>
<path fill-rule="evenodd" clip-rule="evenodd" d="M200.762 142.504C200.371 142.857 200.03 143.07 200.002 142.979C199.974 142.889 200.264 142.533 200.655 142.18C201.045 141.828 200.892 142.084 200.922 142.18C200.952 142.277 201.153 142.151 200.762 142.504H200.762Z" fill="#FFD037"/>
<path fill-rule="evenodd" clip-rule="evenodd" d="M191.697 139C191.697 139 190.495 140.767 192.249 143.423C194.003 146.079 195.449 148.337 194.87 150C194.87 150 192.225 145.049 190.065 144.98C187.905 144.912 189.327 141.971 191.697 139Z" fill="#84CC16"/>
<path opacity="0.1" fill-rule="evenodd" clip-rule="evenodd" d="M191.731 139C191.625 139.171 191.541 139.358 191.482 139.555C189.357 142.329 188.226 144.92 190.269 144.984C192.171 145.045 194.452 148.826 195 149.781C194.982 149.856 194.96 149.929 194.934 150C194.934 150 192.259 145.052 190.075 144.984C187.891 144.915 189.335 141.969 191.731 139Z" fill="black"/>
<path fill-rule="evenodd" clip-rule="evenodd" d="M189 142.263C189 142.67 189.053 143 189.116 143C189.18 143 189.231 142.678 189.231 142.263C189.231 141.848 189.167 142.048 189.104 142.048C189.04 142.048 189 141.857 189 142.263Z" fill="#FFD037"/>
<path fill-rule="evenodd" clip-rule="evenodd" d="M188.238 142.504C188.629 142.857 188.968 143.07 188.998 142.979C189.028 142.889 188.736 142.533 188.345 142.18C187.955 141.828 188.108 142.084 188.078 142.18C188.048 142.277 187.848 142.151 188.238 142.504Z" fill="#FFD037"/>
<path fill-rule="evenodd" clip-rule="evenodd" d="M189 149.721C189 149.721 192.493 149.622 193.548 148.941C194.603 148.259 198.922 147.444 199.183 148.526C199.444 149.609 204.432 153.97 200.488 153.999C196.545 154.028 191.326 153.44 190.276 152.858C189.225 152.276 189 149.721 189 149.721Z" fill="#A8A8A8"/>
<path opacity="0.2" fill-rule="evenodd" clip-rule="evenodd" d="M200.559 153.56C196.615 153.593 191.395 152.908 190.344 152.23C189.544 151.713 189.223 149.857 189.118 149H189C189 149 189.227 151.991 190.274 152.669C191.32 153.347 196.545 154.033 200.489 153.999C201.626 153.999 202.02 153.56 201.999 152.925C201.84 153.313 201.406 153.552 200.559 153.56Z" fill="black"/>
</g>
</g>
<defs>
<linearGradient id="paint0_linear_0_7375" x1="193.011" y1="166.01" x2="193.011" y2="5.00063" gradientUnits="userSpaceOnUse">
<stop stop-color="#808080" stop-opacity="0.25"/>
<stop offset="0.54" stop-color="#808080" stop-opacity="0.12"/>
<stop offset="1" stop-color="#808080" stop-opacity="0.1"/>
</linearGradient>
<clipPath id="clip0_0_7375">
<rect width="236" height="180" fill="white"/>
</clipPath>
</defs>
</svg>
