<svg width="248" height="228" viewBox="0 0 248 228" fill="none" xmlns="http://www.w3.org/2000/svg">
<g clip-path="url(#clip0_0_6371)">
<mask id="mask0_0_6371" style="mask-type:luminance" maskUnits="userSpaceOnUse" x="0" y="0" width="248" height="228">
<path fill-rule="evenodd" clip-rule="evenodd" d="M0 0H248V228H0V0Z" fill="white"/>
</mask>
<g mask="url(#mask0_0_6371)">
<path fill-rule="evenodd" clip-rule="evenodd" d="M205.002 57.3765L181.309 38.6902C180.743 38.2437 180.043 38.0005 179.321 38H158.235C158.177 38.2447 158.111 38.4893 158.041 38.7304H179.321C179.877 38.7317 180.417 38.9181 180.854 39.2599L204.548 57.9498C204.773 58.1264 204.954 58.3517 205.079 58.6086C205.203 58.8654 205.268 59.1472 205.266 59.4324V168.194C205.512 168.201 205.758 168.22 206 168.238V59.4324C206.001 59.0368 205.912 58.6461 205.739 58.2899C205.567 57.9337 205.315 57.6213 205.002 57.3765V57.3765ZM52.7335 48.8459C52.7356 46.1643 53.8062 43.5932 55.7102 41.6967C57.6142 39.8002 60.1962 38.7334 62.8894 38.7304H100.674C100.605 38.4857 100.539 38.2447 100.476 38H62.8894C60.0018 38.0036 57.2336 39.1475 55.1921 41.1809C53.1506 43.2142 52.0026 45.9708 52 48.8459V115.382C52.253 115.637 52.4952 115.9 52.7335 116.167V48.8459ZM176.291 209.27H62.8894C60.1962 209.267 57.6142 208.2 55.7102 206.303C53.8062 204.407 52.7356 201.836 52.7335 199.154V155.752C52.4988 156.019 52.253 156.282 52 156.538V199.154C52.0026 202.029 53.1506 204.786 55.1921 206.819C57.2336 208.852 60.0018 209.996 62.8894 210H176.611C176.5 209.759 176.394 209.514 176.291 209.27V209.27Z" fill="#3F3D56"/>
<path fill-rule="evenodd" clip-rule="evenodd" d="M204.667 58H185.324C184.625 58 183.933 57.8619 183.287 57.5936C182.641 57.3252 182.054 56.9319 181.559 56.4361C181.065 55.9403 180.673 55.3517 180.405 54.7039C180.138 54.0561 180 53.3618 180 52.6606V38.3337C180 38.271 180.018 38.2095 180.051 38.1564C180.084 38.1032 180.132 38.0606 180.188 38.0333C180.244 38.006 180.307 37.9951 180.369 38.002C180.431 38.0089 180.49 38.0332 180.539 38.0721L204.874 57.4047C204.928 57.4477 204.967 57.5066 204.987 57.5731C205.006 57.6397 205.004 57.7106 204.982 57.776C204.959 57.8414 204.916 57.8981 204.86 57.9383C204.804 57.9784 204.736 58 204.667 58V58Z" fill="#E6E6E6"/>
<path fill-rule="evenodd" clip-rule="evenodd" d="M179.721 38.7571V52.4934C179.722 53.7631 180.229 54.9803 181.131 55.8782C182.033 56.776 183.256 57.281 184.531 57.2824H203.209L179.721 38.7571ZM203.316 58H184.531C183.065 57.9983 181.659 57.4176 180.622 56.3853C179.585 55.353 179.002 53.9533 179 52.4934V38.6806C179 38.5527 179.036 38.4274 179.104 38.319C179.173 38.2106 179.27 38.1236 179.386 38.0679C179.502 38.0122 179.631 37.9901 179.758 38.0041C179.886 38.0181 180.007 38.0676 180.108 38.147L203.741 56.7861C203.852 56.8738 203.933 56.9939 203.973 57.1296C204.012 57.2652 204.009 57.4098 203.962 57.5433C203.915 57.6767 203.828 57.7924 203.712 57.8742C203.597 57.9561 203.458 58 203.316 58V58Z" fill="#3F3D56"/>
<path fill-rule="evenodd" clip-rule="evenodd" d="M166.39 82H110.61C109.918 82 109.254 81.7366 108.764 81.2678C108.275 80.7989 108 80.163 108 79.5C108 78.837 108.275 78.2011 108.764 77.7322C109.254 77.2634 109.918 77 110.61 77H166.39C167.083 77 167.746 77.2634 168.236 77.7322C168.725 78.2011 169 78.837 169 79.5C169 80.163 168.725 80.7989 168.236 81.2678C167.746 81.7366 167.083 82 166.39 82H166.39Z" fill="#CCCCCC"/>
<path fill-rule="evenodd" clip-rule="evenodd" d="M177.382 91H110.618C109.924 91 109.258 90.7366 108.767 90.2678C108.276 89.7989 108 89.163 108 88.5C108 87.837 108.276 87.2011 108.767 86.7322C109.258 86.2634 109.924 86 110.618 86H177.382C178.076 86 178.742 86.2634 179.233 86.7322C179.724 87.2011 180 87.837 180 88.5C180 89.163 179.724 89.7989 179.233 90.2678C178.742 90.7366 178.076 91 177.382 91V91Z" fill="#CCCCCC"/>
<path fill-rule="evenodd" clip-rule="evenodd" d="M166.39 122H110.61C109.918 122 109.254 121.737 108.764 121.268C108.275 120.799 108 120.163 108 119.5C108 118.837 108.275 118.201 108.764 117.732C109.254 117.263 109.918 117 110.61 117H166.39C167.083 117 167.746 117.263 168.236 117.732C168.725 118.201 169 118.837 169 119.5C169 120.163 168.725 120.799 168.236 121.268C167.746 121.737 167.083 122 166.39 122H166.39Z" fill="#CCCCCC"/>
<path fill-rule="evenodd" clip-rule="evenodd" d="M177.382 130H110.618C109.924 130 109.258 129.737 108.767 129.268C108.276 128.799 108 128.163 108 127.5C108 126.837 108.276 126.201 108.767 125.732C109.258 125.263 109.924 125 110.618 125H177.382C178.076 125 178.742 125.263 179.233 125.732C179.724 126.201 180 126.837 180 127.5C180 128.163 179.724 128.799 179.233 129.268C178.742 129.737 178.076 130 177.382 130V130Z" fill="#CCCCCC"/>
<path fill-rule="evenodd" clip-rule="evenodd" d="M166.39 161H110.61C110.267 161 109.928 160.935 109.611 160.81C109.294 160.684 109.007 160.5 108.764 160.268C108.522 160.036 108.33 159.76 108.199 159.457C108.067 159.153 108 158.828 108 158.5C108 158.172 108.068 157.847 108.199 157.543C108.33 157.24 108.522 156.964 108.764 156.732C109.007 156.5 109.294 156.316 109.611 156.19C109.928 156.065 110.267 156 110.61 156H166.39C167.083 156 167.746 156.263 168.236 156.732C168.725 157.201 169 157.837 169 158.5C169 159.163 168.725 159.799 168.236 160.268C167.746 160.737 167.083 161 166.39 161H166.39Z" fill="#CCCCCC"/>
<path fill-rule="evenodd" clip-rule="evenodd" d="M177.382 170H110.618C110.274 170 109.934 169.935 109.616 169.81C109.299 169.684 109.01 169.5 108.767 169.268C108.524 169.036 108.331 168.76 108.199 168.457C108.068 168.153 108 167.828 108 167.5C108 167.172 108.068 166.847 108.199 166.543C108.331 166.24 108.524 165.964 108.767 165.732C109.01 165.5 109.299 165.316 109.616 165.19C109.934 165.065 110.274 165 110.618 165H177.382C177.726 165 178.066 165.065 178.384 165.19C178.701 165.316 178.99 165.5 179.233 165.732C179.476 165.964 179.669 166.24 179.801 166.543C179.932 166.847 180 167.172 180 167.5C180 167.828 179.932 168.153 179.801 168.457C179.669 168.76 179.476 169.036 179.233 169.268C178.99 169.5 178.701 169.684 178.384 169.81C178.066 169.935 177.726 170 177.382 170H177.382Z" fill="#CCCCCC"/>
<path fill-rule="evenodd" clip-rule="evenodd" d="M87 93C91.9706 93 96 88.9706 96 84C96 79.0294 91.9706 75 87 75C82.0294 75 78 79.0294 78 84C78 88.9706 82.0294 93 87 93Z" fill="#84CC16"/>
<path fill-rule="evenodd" clip-rule="evenodd" d="M86.1319 88C85.9244 88.0003 85.7224 87.9334 85.5564 87.8091L85.5461 87.8014L83.3784 86.1468C83.2778 86.0701 83.1933 85.9743 83.1298 85.865C83.0663 85.7556 83.0251 85.6349 83.0084 85.5096C82.9917 85.3844 83 85.2571 83.0326 85.135C83.0653 85.0129 83.1218 84.8985 83.1988 84.7982C83.2758 84.6979 83.372 84.6138 83.4816 84.5506C83.5913 84.4874 83.7123 84.4464 83.8379 84.43C83.9634 84.4135 84.091 84.4219 84.2133 84.4547C84.3356 84.4875 84.4502 84.544 84.5506 84.6211L85.9547 85.6955L89.2725 81.3762C89.3495 81.2761 89.4454 81.1921 89.5549 81.1289C89.6644 81.0658 89.7853 81.0248 89.9106 81.0083C90.036 80.9918 90.1634 81 90.2855 81.0326C90.4077 81.0652 90.5222 81.1215 90.6226 81.1983L90.6228 81.1985L90.6023 81.227L90.6234 81.1985C90.8259 81.3538 90.9583 81.5829 90.9917 81.8355C91.0251 82.0881 90.9567 82.3436 90.8015 82.5459L86.899 87.624C86.8087 87.741 86.6926 87.8357 86.5597 87.9007C86.4269 87.9657 86.2808 87.9993 86.1328 87.9988L86.1319 88Z" fill="white"/>
<path fill-rule="evenodd" clip-rule="evenodd" d="M87 133C91.9706 133 96 128.971 96 124C96 119.029 91.9706 115 87 115C82.0294 115 78 119.029 78 124C78 128.971 82.0294 133 87 133Z" fill="#E6E6E6"/>
<path fill-rule="evenodd" clip-rule="evenodd" d="M86.1312 127C85.9237 127 85.7216 126.933 85.5556 126.809L85.5453 126.801L83.3773 125.147C83.1745 124.992 83.0418 124.763 83.0083 124.51C82.9749 124.257 83.0434 124.001 83.1989 123.799C83.3543 123.597 83.584 123.464 83.8373 123.431C84.0906 123.398 84.3469 123.466 84.5496 123.621L85.9539 124.695L89.2723 120.376C89.3492 120.276 89.4452 120.192 89.5547 120.129C89.6642 120.066 89.7851 120.025 89.9105 120.008C90.0359 119.992 90.1633 120 90.2854 120.033C90.4076 120.065 90.5222 120.122 90.6225 120.198L90.6228 120.199L90.6022 120.227L90.6234 120.199C90.8259 120.354 90.9583 120.583 90.9917 120.835C91.0251 121.088 90.9567 121.344 90.8015 121.546L86.8984 126.624C86.8081 126.741 86.692 126.836 86.5591 126.901C86.4262 126.966 86.2801 126.999 86.1321 126.999L86.1312 127Z" fill="white"/>
<path fill-rule="evenodd" clip-rule="evenodd" d="M87 172C91.9706 172 96 167.971 96 163C96 158.029 91.9706 154 87 154C82.0294 154 78 158.029 78 163C78 167.971 82.0294 172 87 172Z" fill="#E6E6E6"/>
<path fill-rule="evenodd" clip-rule="evenodd" d="M86.1319 167C85.9244 167 85.7224 166.933 85.5564 166.809L85.5461 166.801L83.3784 165.147C83.2778 165.07 83.1933 164.974 83.1298 164.865C83.0663 164.756 83.0251 164.635 83.0084 164.51C82.9917 164.384 83 164.257 83.0326 164.135C83.0653 164.013 83.1218 163.898 83.1988 163.798C83.2758 163.698 83.372 163.614 83.4816 163.551C83.5913 163.487 83.7123 163.446 83.8379 163.43C83.9634 163.414 84.091 163.422 84.2133 163.455C84.3356 163.488 84.4502 163.544 84.5506 163.621L85.9547 164.695L89.2725 160.376C89.3495 160.276 89.4454 160.192 89.5549 160.129C89.6644 160.066 89.7853 160.025 89.9106 160.008C90.036 159.992 90.1634 160 90.2855 160.033C90.4077 160.065 90.5222 160.122 90.6226 160.198L90.6228 160.199L90.6023 160.227L90.6234 160.199C90.8259 160.354 90.9583 160.583 90.9917 160.835C91.0251 161.088 90.9567 161.344 90.8015 161.546L86.899 166.624C86.8087 166.741 86.6926 166.836 86.5597 166.901C86.4269 166.966 86.2808 166.999 86.1328 166.999L86.1319 167Z" fill="white"/>
<path fill-rule="evenodd" clip-rule="evenodd" d="M217 224.642C216.479 224.909 215.95 225.162 215.411 225.401C214.921 225.619 214.423 225.824 213.917 226.015C213.732 226.085 213.544 226.154 213.356 226.223C211.869 226.754 210.342 227.168 208.789 227.462C208.02 227.61 207.24 227.727 206.451 227.812C205.8 227.884 205.141 227.936 204.476 227.967C204.003 227.99 203.529 228 203.052 228C201.164 228.001 199.279 227.827 197.424 227.481C196.94 227.396 196.467 227.293 195.993 227.181C193.702 226.641 191.485 225.836 189.387 224.784C189.199 224.691 189.011 224.592 188.823 224.496C188.544 224.351 188.272 224.199 188 224.041C188.131 223.862 188.272 223.687 188.416 223.515C189.988 221.6 191.952 220.033 194.181 218.914C196.41 217.796 198.854 217.151 201.353 217.024C203.852 216.896 206.35 217.287 208.685 218.173C211.02 219.058 213.139 220.417 214.904 222.162C215.517 222.766 216.085 223.413 216.604 224.097C216.741 224.275 216.872 224.457 217 224.642Z" fill="#84CC16"/>
<path fill-rule="evenodd" clip-rule="evenodd" d="M204 210C212.284 210 219 203.284 219 195C219 186.716 212.284 180 204 180C195.716 180 189 186.716 189 195C189 203.284 195.716 210 204 210Z" fill="#2F2E41"/>
<path fill-rule="evenodd" clip-rule="evenodd" d="M207.213 210.027C212.545 207.115 214.503 200.434 211.587 195.104C208.672 189.775 201.986 187.815 196.654 190.727C191.322 193.639 189.364 200.321 192.28 205.65C195.195 210.98 201.881 212.94 207.213 210.027Z" fill="#A0616A"/>
<path fill-rule="evenodd" clip-rule="evenodd" d="M215 193.056C212.422 194.838 209.362 195.786 206.23 195.773C207.347 196.549 208.619 197.074 209.958 197.31C205.794 198.205 201.491 198.229 197.318 197.381C196.391 197.232 195.496 196.924 194.673 196.47C194.262 196.241 193.905 195.927 193.623 195.55C193.342 195.173 193.143 194.74 193.039 194.281C192.762 192.693 193.996 191.25 195.279 190.278C197.243 188.812 199.508 187.802 201.909 187.321C204.31 186.84 206.788 186.9 209.164 187.497C210.714 187.899 212.268 188.578 213.276 189.826C214.283 191.075 214.581 193 213.622 194.285L215 193.056Z" fill="#2F2E41"/>
<path fill-rule="evenodd" clip-rule="evenodd" d="M232.796 203.097C232.206 206.177 231.132 209.143 229.613 211.886C229.587 211.934 229.561 211.982 229.536 212.026C226.678 217.141 222.379 221.304 217.174 223.995C216.653 224.266 216.125 224.521 215.592 224.758C215.147 224.956 214.692 225.147 214.233 225.324C214.042 225.397 213.844 225.474 213.649 225.54C212.353 226.014 211.024 226.394 209.673 226.678C208.672 226.892 207.66 227.052 206.641 227.156C206.013 227.225 205.378 227.273 204.735 227.295C204.324 227.313 203.913 227.324 203.498 227.324C201.654 227.325 199.814 227.153 198.002 226.81C196.899 226.608 195.81 226.341 194.738 226.01C193.106 225.507 191.52 224.865 189.998 224.09C189.822 223.998 189.646 223.906 189.474 223.811C189.224 223.679 188.974 223.543 188.732 223.4C188.548 223.297 188.365 223.187 188.185 223.08C188.078 223.018 187.976 222.955 187.869 222.889C182.797 219.754 178.774 215.18 176.312 209.75C176.201 209.507 176.095 209.261 175.992 209.015C174.095 204.483 173.347 199.552 173.815 194.661C174.282 189.77 175.952 185.07 178.673 180.98C181.395 176.889 185.086 173.535 189.417 171.214C193.748 168.894 198.585 167.68 203.498 167.679C204.001 167.679 204.5 167.69 204.996 167.72C205.242 167.727 205.488 167.745 205.73 167.764C209.92 168.081 213.995 169.28 217.689 171.28C221.383 173.281 224.613 176.04 227.168 179.375C229.723 182.71 231.545 186.547 232.515 190.635C233.485 194.723 233.58 198.97 232.796 203.097V203.097ZM205.73 167.081C205.488 167.062 205.242 167.048 204.996 167.037C204.5 167.011 204.001 167 203.498 167C198.497 167 193.572 168.23 189.158 170.582C184.744 172.933 180.976 176.334 178.186 180.485C175.396 184.636 173.67 189.409 173.159 194.385C172.649 199.36 173.369 204.384 175.258 209.015C175.357 209.261 175.46 209.507 175.57 209.75C178.093 215.465 182.299 220.276 187.627 223.539L187.821 223.653C187.987 223.752 188.148 223.848 188.31 223.936C188.585 224.101 188.861 224.255 189.139 224.406C189.33 224.505 189.521 224.604 189.708 224.699C191.826 225.78 194.064 226.606 196.376 227.159C196.853 227.277 197.33 227.38 197.819 227.468C199.691 227.822 201.593 228.001 203.498 228C203.979 228 204.457 227.989 204.938 227.967C205.606 227.938 206.27 227.883 206.927 227.809C207.724 227.721 208.511 227.601 209.288 227.449C210.855 227.147 212.395 226.722 213.896 226.179C214.086 226.106 214.277 226.036 214.461 225.962C214.975 225.768 215.474 225.558 215.97 225.335C216.513 225.089 217.048 224.828 217.574 224.553C222.849 221.789 227.209 217.555 230.127 212.364C230.14 212.336 230.155 212.309 230.171 212.283C232.655 207.806 233.972 202.776 234 197.656C234.028 192.536 232.766 187.492 230.331 182.988C227.896 178.484 224.366 174.666 220.066 171.886C215.767 169.106 210.837 167.454 205.73 167.081L205.73 167.081Z" fill="#3F3D56"/>
<path fill-rule="evenodd" clip-rule="evenodd" d="M197.207 180.412C197.041 178.678 194.904 177.61 193.232 178.134C191.561 178.658 190.464 180.331 190.132 182.042C189.972 182.763 189.957 183.508 190.088 184.234C190.218 184.96 190.492 185.654 190.892 186.275C191.737 187.484 193.29 188.238 194.738 187.931C196.391 187.581 197.536 185.976 197.864 184.328C198.191 182.679 197.866 180.979 197.541 179.33L197.207 180.412Z" fill="#2F2E41"/>
<path fill-rule="evenodd" clip-rule="evenodd" d="M219.207 182.412C219.041 180.678 216.904 179.61 215.232 180.134C213.561 180.658 212.464 182.331 212.132 184.042C211.972 184.763 211.957 185.508 212.088 186.234C212.218 186.96 212.492 187.654 212.892 188.275C213.737 189.484 215.29 190.238 216.738 189.931C218.391 189.581 219.536 187.976 219.864 186.328C220.191 184.679 219.866 182.979 219.541 181.33L219.207 182.412Z" fill="#2F2E41"/>
<path fill-rule="evenodd" clip-rule="evenodd" d="M145 55.1943C140.24 58.2435 134.724 59.9062 129.072 59.9961C123.42 60.0861 117.855 58.5997 113 55.7036C113.854 54.1133 114.936 52.6567 116.212 51.3799C118.181 49.4014 120.576 47.9006 123.215 46.9927C125.854 46.0849 128.666 45.7943 131.435 46.1432C134.204 46.4921 136.855 47.4712 139.187 49.0053C141.518 50.5394 143.467 52.5876 144.884 54.9927C144.921 55.0576 144.962 55.126 145 55.1943Z" fill="#84CC16"/>
<path fill-rule="evenodd" clip-rule="evenodd" d="M128 40C136.284 40 143 33.2843 143 25C143 16.7157 136.284 10 128 10C119.716 10 113 16.7157 113 25C113 33.2843 119.716 40 128 40Z" fill="#2F2E41"/>
<path fill-rule="evenodd" clip-rule="evenodd" d="M137.587 34.8956C140.503 29.566 138.545 22.8847 133.213 19.9726C127.881 17.0605 121.196 19.0203 118.28 24.3499C115.364 29.6795 117.322 36.3608 122.654 39.2729C127.985 42.185 134.671 40.2252 137.587 34.8956Z" fill="#FFB8B8"/>
<path fill-rule="evenodd" clip-rule="evenodd" d="M118 23.0563C120.578 24.8376 123.638 25.7856 126.77 25.7731C125.653 26.5494 124.381 27.0738 123.043 27.3101C127.206 28.2053 131.509 28.2296 135.682 27.3813C136.609 27.2322 137.504 26.9241 138.327 26.4704C138.738 26.2407 139.095 25.9271 139.376 25.5499C139.658 25.1727 139.857 24.7403 139.961 24.281C140.238 22.693 139.004 21.2503 137.721 20.278C135.757 18.8121 133.492 17.8021 131.091 17.3211C128.69 16.8401 126.212 16.9002 123.837 17.4969C122.286 17.8988 120.732 18.5777 119.724 19.8263C118.717 21.0748 118.419 22.9996 119.378 24.2853L118 23.0563Z" fill="#2F2E41"/>
<path fill-rule="evenodd" clip-rule="evenodd" d="M158.418 37.8152C158.359 38.0612 158.293 38.3072 158.223 38.5495C156.984 42.9611 154.746 47.0282 151.682 50.4353C148.618 53.8424 144.811 56.498 140.555 58.1961C136.299 59.8943 131.709 60.5894 127.141 60.2276C122.573 59.8658 118.15 58.4567 114.214 56.1097C107.673 52.1738 102.877 45.895 100.799 38.5495C100.729 38.3035 100.663 38.0612 100.601 37.8152C99.9889 35.4243 99.6793 32.9661 99.6793 30.4982C99.684 26.2737 100.586 22.0984 102.326 18.2489C104.066 14.3993 106.604 10.9634 109.772 8.16877C112.94 5.37409 116.666 3.2844 120.702 2.03811C124.739 0.79182 128.994 0.41739 133.186 0.9396C137.378 1.46182 141.412 2.86876 145.019 5.06724C148.626 7.26573 151.726 10.2056 154.111 13.6921C156.497 17.1786 158.114 21.1321 158.857 25.2909C159.599 29.4496 159.449 33.7187 158.418 37.8152ZM129.502 0C121.416 0.00899 113.663 3.22495 107.945 8.94241C102.227 14.6599 99.01 22.412 99 30.4982C99.0012 32.9649 99.3046 35.4222 99.9032 37.8152C99.9656 38.0612 100.028 38.3072 100.094 38.5495C101.853 44.9999 105.686 50.6925 111 54.7496C116.315 58.8067 122.816 61.0031 129.502 61C136.189 60.9998 142.691 58.8026 148.008 54.7463C153.325 50.69 157.161 44.9993 158.928 38.5495C158.994 38.3035 159.057 38.0612 159.115 37.8152C160.221 33.3225 160.291 28.637 159.32 24.1132C158.349 19.5893 156.362 15.3455 153.509 11.7027C150.656 8.05983 147.013 5.1133 142.854 3.08588C138.694 1.05846 134.129 0.00324 129.502 0Z" fill="#3F3D56"/>
<path fill-rule="evenodd" clip-rule="evenodd" d="M47 161.194C42.2398 164.243 36.7246 165.906 31.0726 165.996C25.4206 166.086 19.8551 164.6 15 161.705C15.0517 161.605 15.1072 161.505 15.1665 161.409C16.7238 158.601 18.9934 156.253 21.7467 154.602C24.5 152.95 27.6397 152.054 30.8496 152.002C34.0595 151.951 37.2263 152.746 40.0311 154.309C42.8358 155.871 45.1794 158.145 46.8259 160.901C46.8482 160.931 46.8666 160.964 46.8852 160.994C46.9223 161.057 46.9629 161.127 47 161.194Z" fill="#84CC16"/>
<path fill-rule="evenodd" clip-rule="evenodd" d="M44.9998 130C44.9998 132.967 44.1201 135.867 42.4719 138.334C40.8236 140.8 38.481 142.723 35.7401 143.858C32.9992 144.994 29.9832 145.291 27.0735 144.712C24.1638 144.133 21.4911 142.704 19.3934 140.607C17.2956 138.509 15.867 135.836 15.2882 132.926C14.7095 130.017 15.0065 127.001 16.1418 124.26C17.2771 121.519 19.1997 119.176 21.6664 117.528C24.1331 115.88 27.0332 115 29.9999 115C31.9724 114.991 33.9272 115.372 35.7513 116.123C37.5754 116.873 39.2328 117.978 40.6275 119.373C42.0223 120.767 43.1268 122.425 43.8773 124.249C44.6277 126.073 45.0093 128.028 44.9998 130Z" fill="#2F2E41"/>
<path fill-rule="evenodd" clip-rule="evenodd" d="M41.2351 139.035C41.066 139.46 40.8713 139.875 40.6522 140.277C39.2531 142.837 36.895 144.735 34.0964 145.556C31.2978 146.376 28.2879 146.051 25.7288 144.653C24.4606 143.96 23.3413 143.025 22.4347 141.9C21.5281 140.775 20.852 139.482 20.4451 138.096C20.0382 136.709 19.9085 135.256 20.0633 133.82C20.2182 132.383 20.6545 130.991 21.3475 129.723C22.0404 128.455 22.9764 127.336 24.1019 126.43C25.2274 125.524 26.5203 124.849 27.9068 124.443C29.2934 124.037 30.7463 123.908 32.1826 124.064C33.6189 124.22 35.0104 124.657 36.2776 125.351C38.6284 126.637 40.4292 128.737 41.342 131.256C42.2548 133.776 42.2168 136.542 41.2351 139.035Z" fill="#A0616A"/>
<path fill-rule="evenodd" clip-rule="evenodd" d="M51.9673 156.199C50.3541 157.871 48.5518 159.349 46.5968 160.604C46.5932 160.607 46.5895 160.607 46.5859 160.611C41.9151 163.601 36.504 165.232 30.9587 165.32C25.4135 165.408 19.9532 163.951 15.1897 161.111C15.1861 161.111 15.1861 161.107 15.1823 161.107C11.5289 158.928 8.38358 155.993 5.9573 152.499C3.53103 149.005 1.87989 145.033 1.11464 140.849C0.34939 136.664 0.48772 132.364 1.52034 128.238C2.55296 124.111 4.45601 120.253 7.10184 116.922C9.74768 113.591 13.0751 110.865 16.861 108.926C20.6469 106.986 24.8037 105.879 29.0527 105.678C33.3016 105.477 37.5444 106.186 41.4965 107.76C45.4486 109.333 49.0187 111.733 51.9673 114.799C52.2207 115.056 52.4632 115.32 52.702 115.589C57.6075 121.06 60.3204 128.15 60.3204 135.499C60.3204 142.848 57.6075 149.938 52.702 155.409C52.4668 155.677 52.2207 155.942 51.9673 156.199ZM52.702 114.593C52.4668 114.336 52.2207 114.082 51.9673 113.836C47.8856 109.791 42.7441 106.981 37.1352 105.731C31.5263 104.48 25.6782 104.84 20.2648 106.768C14.8514 108.697 10.0929 112.115 6.53763 116.63C2.98234 121.145 0.7749 126.573 0.16965 132.288C-0.4356 138.003 0.58598 143.772 3.11667 148.932C5.64736 154.091 9.5842 158.431 14.4736 161.45C19.363 164.47 25.0059 166.047 30.7523 165.999C36.4987 165.951 42.1147 164.281 46.9532 161.18C48.7602 160.021 50.4407 158.675 51.9673 157.165C52.2171 156.919 52.4632 156.669 52.702 156.412C58.0318 150.755 61 143.275 61 135.503C61 127.73 58.0318 120.25 52.702 114.593V114.593Z" fill="#3F3D56"/>
<path fill-rule="evenodd" clip-rule="evenodd" d="M41.8513 117.964C41.118 116.686 40.0549 115.64 38.7795 114.943C37.5041 114.246 36.0659 113.925 34.6239 114.015C33.1103 114.131 31.6701 114.704 30.2561 115.271L23.0668 118.151C21.2065 118.896 19.169 119.809 18.3618 121.685C17.6125 123.426 18.1715 125.437 18.7374 127.25L21.4272 135.866C21.7957 133.931 22.1701 131.976 22.9514 130.174C23.7327 128.373 24.9685 126.712 26.6769 125.811C28.5443 124.828 30.7454 124.848 32.8418 124.952C35.8108 125.098 39.0389 125.486 41.1485 127.637C42.2683 128.859 43.0275 130.382 43.3378 132.029C43.6432 133.667 43.7969 135.332 43.7969 137C45.0144 134.85 46.04 132.592 46.8611 130.253C47.5366 128.511 47.9215 126.664 47.9996 124.791C48.0157 122.92 47.5 120.99 46.2855 119.596C45.0709 118.202 43.0918 117.449 41.3514 118.001" fill="#2F2E41"/>
<path fill-rule="evenodd" clip-rule="evenodd" d="M18.9219 77L18 76.9923C18.011 76.3317 18.0375 75.6613 18.079 75L19 75.0297C18.9591 75.6837 18.9328 76.3467 18.9219 77H18.9219Z" fill="#E6E6E6"/>
<path fill-rule="evenodd" clip-rule="evenodd" d="M71.8749 14.31L71.7493 13.5931C73.1254 13.352 74.5288 13.1525 75.9207 13L76 13.7236C74.6236 13.8743 73.2357 14.0717 71.8749 14.31V14.31ZM63.7812 16.2747L63.5639 15.5799C64.8985 15.1629 66.2647 14.784 67.6245 14.4541L67.7963 15.1613C66.4517 15.4877 65.1008 15.8623 63.7812 16.2747V16.2747ZM56.0171 19.2646L55.7121 18.6036C56.9809 18.0184 58.2855 17.4671 59.5896 16.9647L59.8514 17.6438C58.5618 18.1405 57.2718 18.6859 56.0171 19.2646V19.2646ZM48.6991 23.2309L48.3116 22.6147C49.4959 21.8705 50.7192 21.1556 51.9476 20.4898L52.2947 21.1295C51.08 21.788 49.8702 22.4949 48.6991 23.2309V23.2309ZM41.9474 28.1042L41.4842 27.5426C42.5635 26.6531 43.6855 25.7872 44.8191 24.9691L45.2454 25.559C44.1243 26.3683 43.0147 27.2246 41.9474 28.1042V28.1042ZM35.8713 33.8007L35.3403 33.3028C36.2969 32.2835 37.2995 31.2815 38.3203 30.3243L38.8184 30.8552C37.8089 31.8018 36.8173 32.7928 35.8713 33.8007V33.8007ZM30.5705 40.227L29.9803 39.8009C30.7994 38.667 31.6662 37.5449 32.5564 36.4657L33.1181 36.9288C32.2378 37.996 31.3807 39.1055 30.5705 40.227V40.227ZM26.1349 47.2798L25.4948 46.933C26.1614 45.704 26.8775 44.4799 27.623 43.2945L28.2394 43.6819C27.5021 44.8541 26.7941 46.0646 26.1349 47.2798H26.1349ZM22.6428 54.8467L21.9633 54.5852C22.4661 53.2795 23.0186 51.9729 23.6053 50.7017L24.2665 51.0066C23.6863 52.2636 23.14 53.5556 22.6428 54.8467V54.8467ZM20.159 62.7989L19.4513 62.6276C19.7809 61.2684 20.1593 59.9027 20.5761 58.568L21.2711 58.7848C20.859 60.1045 20.4848 61.4552 20.159 62.7989V62.7989ZM18.7239 71L18 70.9211C18.152 69.5299 18.3511 68.1269 18.5918 66.751L19.309 66.8764C19.071 68.2369 18.8742 69.6243 18.7239 71V71Z" fill="#E6E6E6"/>
<path fill-rule="evenodd" clip-rule="evenodd" d="M81.0297 14L81 13.079C81.6616 13.0376 82.3318 13.011 82.9921 13L83 13.9219C82.3469 13.9327 81.684 13.959 81.0297 14V14Z" fill="#E6E6E6"/>
<path fill-rule="evenodd" clip-rule="evenodd" d="M22 75.6744L21.4757 75.1317L18.9461 77.8628L16.55 75L16 75.514L18.9189 79L22 75.6744Z" fill="#E6E6E6"/>
<path fill-rule="evenodd" clip-rule="evenodd" d="M80.6744 16L80.1317 15.4757L82.8628 12.9461L80 10.55L80.514 10L84 12.9189L80.6744 16Z" fill="#E6E6E6"/>
<path fill-rule="evenodd" clip-rule="evenodd" d="M189.702 21C189.139 20.59 188.571 20.1872 188 19.7913L188.286 19C188.862 19.3983 189.433 19.8038 190 20.2167L189.702 21Z" fill="#E6E6E6"/>
<path fill-rule="evenodd" clip-rule="evenodd" d="M197.743 24.9076C196.519 24.1299 195.26 23.3656 194 22.6353L194.367 22C195.636 22.7351 196.904 23.5049 198.136 24.2877L197.743 24.9076ZM204.935 29.9011C203.779 29.0256 202.586 28.1606 201.39 27.3304L201.808 26.7271C203.012 27.5631 204.213 28.434 205.378 29.3155L204.935 29.9011ZM211.704 35.4785C210.619 34.5071 209.5 33.5454 208.377 32.62L208.843 32.0532C209.974 32.9851 211.101 33.9535 212.193 34.9315L211.704 35.4785ZM217.987 41.5941C216.986 40.5362 215.951 39.4858 214.909 38.4716L215.42 37.9453C216.469 38.9664 217.512 40.0242 218.519 41.0892L217.987 41.5941ZM223.744 48.2055C222.834 47.069 221.888 45.9369 220.934 44.8407L221.486 44.3583C222.447 45.4621 223.399 46.602 224.316 47.7464L223.744 48.2055ZM228.936 55.2673C228.123 54.0606 227.274 52.8548 226.412 51.6833L227.003 51.2481C227.87 52.4276 228.725 53.6419 229.544 54.8569L228.936 55.2673ZM233.532 62.7294C232.821 61.4611 232.074 60.19 231.311 58.9514L231.935 58.5662C232.703 59.8132 233.456 61.0931 234.172 62.3702L233.532 62.7294ZM237.504 70.5416C236.898 69.219 236.257 67.8913 235.598 66.5951L236.252 66.2622C236.915 67.5672 237.561 68.9039 238.171 70.2354L237.504 70.5416ZM240.827 78.6502C240.331 77.2831 239.8 75.9077 239.248 74.5622L239.927 74.2835C240.482 75.6384 241.016 77.0232 241.516 78.3995L240.827 78.6502ZM243.48 87.0006C243.096 85.5971 242.678 84.1834 242.238 82.7985L242.937 82.576C243.38 83.9704 243.801 85.3938 244.187 86.8069L243.48 87.0006ZM245.445 95.538C245.177 94.1101 244.875 92.6672 244.549 91.2495L245.264 91.0846C245.592 92.512 245.896 93.9647 246.166 95.4026L245.445 95.538ZM246.708 104.206C246.558 102.76 246.375 101.297 246.165 99.8594L246.891 99.7532C247.102 101.201 247.286 102.673 247.438 104.13L246.708 104.206ZM247.993 112.932L247.26 112.949C247.246 112.31 247.226 111.672 247.201 111.035C247.168 110.218 247.125 109.388 247.074 108.57L247.805 108.524C247.858 109.348 247.901 110.182 247.933 111.005C247.959 111.647 247.979 112.289 247.993 112.932V112.932ZM247.825 121.753L247.093 121.708C247.181 120.258 247.239 118.785 247.267 117.33L248 117.344C247.972 118.809 247.913 120.292 247.825 121.753V121.753ZM246.933 130.529L246.208 130.424C246.414 128.985 246.593 127.522 246.74 126.076L247.47 126.15C247.322 127.606 247.141 129.08 246.933 130.529V130.529ZM245.322 139.201L244.607 139.037C244.932 137.619 245.231 136.175 245.496 134.747L246.217 134.882C245.95 136.319 245.649 137.773 245.322 139.201V139.201ZM243.003 147.71L242.304 147.488C242.744 146.102 243.16 144.688 243.542 143.286L244.25 143.48C243.865 144.891 243.446 146.315 243.003 147.71V147.71ZM239.997 156L239.318 155.722C239.87 154.374 240.4 152.999 240.895 151.635L241.584 151.886C241.086 153.259 240.552 154.643 239.997 156V156Z" fill="#E6E6E6"/>
<path fill-rule="evenodd" clip-rule="evenodd" d="M237.413 161L237 160.723C237.199 160.15 237.393 159.576 237.583 159L238 159.265C237.809 159.845 237.613 160.423 237.413 161V161Z" fill="#E6E6E6"/>
<path fill-rule="evenodd" clip-rule="evenodd" d="M189.321 23L189.944 22.7706L188.859 19.5629L192 18.6659L191.825 18L188 19.093L189.321 23Z" fill="#E6E6E6"/>
<path fill-rule="evenodd" clip-rule="evenodd" d="M235 158.208L235.768 158L237.01 161.113L240.693 159.867L241 160.482L236.514 162L235 158.208Z" fill="#E6E6E6"/>
</g>
</g>
<defs>
<clipPath id="clip0_0_6371">
<rect width="248" height="228" fill="white"/>
</clipPath>
</defs>
</svg>
