<svg width="224" height="228" viewBox="0 0 224 228" fill="none" xmlns="http://www.w3.org/2000/svg">
<g clip-path="url(#clip0_0_6541)">
<mask id="mask0_0_6541" style="mask-type:luminance" maskUnits="userSpaceOnUse" x="0" y="0" width="224" height="228">
<path fill-rule="evenodd" clip-rule="evenodd" d="M0 0H224V228H0V0Z" fill="white"/>
</mask>
<g mask="url(#mask0_0_6541)">
<path fill-rule="evenodd" clip-rule="evenodd" d="M147.789 92C147.579 92.0002 147.379 92.0838 147.231 92.2324C147.083 92.381 147 92.5825 147 92.7926V147.207C147 147.418 147.083 147.619 147.231 147.768C147.379 147.916 147.579 148 147.789 148H223.211C223.421 148 223.621 147.916 223.769 147.768C223.917 147.619 224 147.418 224 147.207V92.7926C224 92.5825 223.917 92.381 223.769 92.2324C223.621 92.0838 223.421 92.0002 223.211 92H147.789Z" fill="#E6E6E6"/>
<path fill-rule="evenodd" clip-rule="evenodd" d="M219 96.958V135.042C219 135.296 218.898 135.54 218.717 135.719C218.537 135.899 218.291 136 218.036 136H152.964C152.919 136.001 152.873 135.997 152.828 135.988C152.599 135.956 152.388 135.843 152.236 135.669C152.084 135.495 152 135.272 152 135.042V96.958C152 96.7039 152.102 96.4603 152.282 96.2806C152.463 96.101 152.709 96 152.964 96H218.036C218.291 96 218.537 96.101 218.717 96.2806C218.898 96.4603 219 96.7039 219 96.958V96.958Z" fill="white"/>
<path fill-rule="evenodd" clip-rule="evenodd" d="M205.5 113C207.433 113 209 111.433 209 109.5C209 107.567 207.433 106 205.5 106C203.567 106 202 107.567 202 109.5C202 111.433 203.567 113 205.5 113Z" fill="#FF6584"/>
<path fill-rule="evenodd" clip-rule="evenodd" d="M149 95C149.552 95 150 94.5523 150 94C150 93.4477 149.552 93 149 93C148.448 93 148 93.4477 148 94C148 94.5523 148.448 95 149 95Z" fill="#3F3D56"/>
<path fill-rule="evenodd" clip-rule="evenodd" d="M221 95C221.552 95 222 94.5523 222 94C222 93.4477 221.552 93 221 93C220.448 93 220 93.4477 220 94C220 94.5523 220.448 95 221 95Z" fill="#3F3D56"/>
<path fill-rule="evenodd" clip-rule="evenodd" d="M149 146C149.552 146 150 145.552 150 145C150 144.448 149.552 144 149 144C148.448 144 148 144.448 148 145C148 145.552 148.448 146 149 146Z" fill="#3F3D56"/>
<path fill-rule="evenodd" clip-rule="evenodd" d="M221 146C221.552 146 222 145.552 222 145C222 144.448 221.552 144 221 144C220.448 144 220 144.448 220 145C220 145.552 220.448 146 221 146Z" fill="#3F3D56"/>
<path fill-rule="evenodd" clip-rule="evenodd" d="M173 123C175.209 123 177 121.209 177 119C177 116.791 175.209 115 173 115C170.791 115 169 116.791 169 119C169 121.209 170.791 123 173 123Z" fill="#84CC16"/>
<path fill-rule="evenodd" clip-rule="evenodd" d="M174 132H173L173.456 119L174 132Z" fill="#3F3D56"/>
<path fill-rule="evenodd" clip-rule="evenodd" d="M173.11 120.802L174 120L173.097 121L173 120.889L173.11 120.802Z" fill="#3F3D56"/>
<path fill-rule="evenodd" clip-rule="evenodd" d="M172.89 121.802L172 121L172.902 122L173 121.889L172.89 121.802Z" fill="#3F3D56"/>
<path fill-rule="evenodd" clip-rule="evenodd" d="M212 123C214.209 123 216 121.209 216 119C216 116.791 214.209 115 212 115C209.791 115 208 116.791 208 119C208 121.209 209.791 123 212 123Z" fill="#84CC16"/>
<path fill-rule="evenodd" clip-rule="evenodd" d="M212 132H211L211.456 119L212 132Z" fill="#3F3D56"/>
<path fill-rule="evenodd" clip-rule="evenodd" d="M212.11 120.802L213 120L212.098 121L212 120.889L212.11 120.802Z" fill="#3F3D56"/>
<path fill-rule="evenodd" clip-rule="evenodd" d="M211.89 121.802L211 121L211.902 122L212 121.889L211.89 121.802Z" fill="#3F3D56"/>
<path fill-rule="evenodd" clip-rule="evenodd" d="M185.5 121C189.09 121 192 118.314 192 115C192 111.686 189.09 109 185.5 109C181.91 109 179 111.686 179 115C179 118.314 181.91 121 185.5 121Z" fill="#84CC16"/>
<path fill-rule="evenodd" clip-rule="evenodd" d="M186 135H185L185.456 115L186 135Z" fill="#3F3D56"/>
<path fill-rule="evenodd" clip-rule="evenodd" d="M185.11 118.603L186 117L185.098 119L185 118.778L185.11 118.603Z" fill="#3F3D56"/>
<path fill-rule="evenodd" clip-rule="evenodd" d="M184.89 120.603L184 119L184.902 121L185 120.778L184.89 120.603Z" fill="#3F3D56"/>
<path fill-rule="evenodd" clip-rule="evenodd" d="M201 119C204.314 119 207 116.314 207 113C207 109.686 204.314 107 201 107C197.686 107 195 109.686 195 113C195 116.314 197.686 119 201 119Z" fill="#84CC16"/>
<path fill-rule="evenodd" clip-rule="evenodd" d="M201 132H200L200.456 112L201 132Z" fill="#3F3D56"/>
<path fill-rule="evenodd" clip-rule="evenodd" d="M201.11 115.603L202 114L201.097 116L201 115.778L201.11 115.603Z" fill="#3F3D56"/>
<path fill-rule="evenodd" clip-rule="evenodd" d="M199.89 117.603L199 116L199.902 118L200 117.778L199.89 117.603Z" fill="#3F3D56"/>
<path fill-rule="evenodd" clip-rule="evenodd" d="M161.5 119C165.09 119 168 116.314 168 113C168 109.686 165.09 107 161.5 107C157.91 107 155 109.686 155 113C155 116.314 157.91 119 161.5 119Z" fill="#84CC16"/>
<path fill-rule="evenodd" clip-rule="evenodd" d="M162 132H161L161.456 112L162 132Z" fill="#3F3D56"/>
<path fill-rule="evenodd" clip-rule="evenodd" d="M161.11 115.603L162 114L161.098 116L161 115.778L161.11 115.603Z" fill="#3F3D56"/>
<path fill-rule="evenodd" clip-rule="evenodd" d="M160.89 117.603L160 116L160.903 118L161 117.778L160.89 117.603Z" fill="#3F3D56"/>
<path fill-rule="evenodd" clip-rule="evenodd" d="M186 136H152.966C152.92 136 152.875 135.997 152.83 135.988C152.6 135.955 152.389 135.841 152.237 135.665C152.084 135.489 152 135.265 152 135.032V126.766C155.108 126.247 158.255 125.991 161.406 126C173.133 126 182.942 129.368 185.401 133.876C185.773 134.524 185.978 135.253 186 136V136Z" fill="#3F3D56"/>
<path fill-rule="evenodd" clip-rule="evenodd" d="M220 133.292V135.078C220 135.322 219.897 135.557 219.713 135.73C219.53 135.903 219.281 136 219.021 136H182C183.191 135.187 184.478 134.508 185.836 133.977C190.372 132.143 196.769 131 203.856 131C210.016 131 215.65 131.86 220 133.292V133.292Z" fill="#3F3D56"/>
<path fill-rule="evenodd" clip-rule="evenodd" d="M189.951 0C189.823 0.00018 189.697 0.03174 189.584 0.0919L123.415 35.1804C123.232 35.278 123.095 35.444 123.034 35.642C122.974 35.8401 122.994 36.054 123.091 36.237L148.355 83.5858C148.453 83.7686 148.62 83.9053 148.819 83.9659C149.017 84.0264 149.232 84.0059 149.416 83.9088L215.585 48.8203C215.768 48.7228 215.905 48.5568 215.966 48.3588C216.026 48.1607 216.006 47.9467 215.909 47.7637L190.644 0.41486C190.596 0.32407 190.53 0.2437 190.451 0.17841C190.371 0.11311 190.28 0.06419 190.181 0.03447C190.107 0.01171 190.029 9e-05 189.951 1e-05L189.951 0Z" fill="#E6E6E6"/>
<path fill-rule="evenodd" clip-rule="evenodd" d="M187.974 6.5094L205.887 40.1828C205.947 40.2941 205.983 40.416 205.995 40.5416C206.008 40.6671 205.995 40.7938 205.958 40.9144C205.921 41.035 205.861 41.1472 205.781 41.2445C205.7 41.3418 205.602 41.4224 205.491 41.4816L148.324 71.888C148.284 71.91 148.241 71.9284 148.198 71.9432C147.981 72.0214 147.743 72.0188 147.527 71.9358C147.312 71.8527 147.134 71.6949 147.025 71.4912L129.113 37.8178C129.053 37.7065 129.017 37.5845 129.004 37.459C128.992 37.3335 129.005 37.2068 129.042 37.0862C129.079 36.9656 129.139 36.8534 129.219 36.7561C129.299 36.6588 129.398 36.5782 129.509 36.519L186.676 6.11259C186.787 6.05333 186.909 6.01658 187.034 6.00445C187.16 5.99232 187.287 6.00504 187.407 6.04189C187.528 6.07874 187.64 6.139 187.737 6.21921C187.835 6.29943 187.915 6.39803 187.974 6.50939V6.5094Z" fill="white"/>
<path fill-rule="evenodd" clip-rule="evenodd" d="M149.5 50C154.194 50 158 46.1944 158 41.5C158 36.8056 154.194 33 149.5 33C144.806 33 141 36.8056 141 41.5C141 46.1944 144.806 50 149.5 50Z" fill="#FF6584"/>
<path fill-rule="evenodd" clip-rule="evenodd" d="M185 52.2423L148.144 71.9374C148.098 71.9626 148.05 71.9836 148 72L149.371 32.3527C149.377 32.1069 149.448 31.8673 149.577 31.6582C149.706 31.4491 149.887 31.2781 150.103 31.1627C150.319 31.0472 150.562 30.9914 150.807 31.0011C151.051 31.0107 151.289 31.0853 151.495 31.2174L173.972 45.3214L175.048 45.9959L185 52.2423Z" fill="#3F3D56"/>
<path opacity="0.2" fill-rule="evenodd" clip-rule="evenodd" d="M186 53.101L173 60L174.451 47.3651L174.555 46.455L174.607 46L175.719 46.6922L186 53.101Z" fill="black"/>
<path fill-rule="evenodd" clip-rule="evenodd" d="M206 41.393L174 58L175.41 45.9942L175.511 45.1296L177.348 29.484C177.468 28.4585 178.717 27.7504 179.697 28.0829C179.764 28.1059 179.828 28.133 179.891 28.1641L206 41.393Z" fill="#3F3D56"/>
<path fill-rule="evenodd" clip-rule="evenodd" d="M125 37C125.552 37 126 36.5523 126 36C126 35.4477 125.552 35 125 35C124.448 35 124 35.4477 124 36C124 36.5523 124.448 37 125 37Z" fill="#3F3D56"/>
<path fill-rule="evenodd" clip-rule="evenodd" d="M189 3C189.552 3 190 2.55228 190 2C190 1.44772 189.552 1 189 1C188.448 1 188 1.44772 188 2C188 2.55228 188.448 3 189 3Z" fill="#3F3D56"/>
<path fill-rule="evenodd" clip-rule="evenodd" d="M149 83C149.552 83 150 82.5523 150 82C150 81.4477 149.552 81 149 81C148.448 81 148 81.4477 148 82C148 82.5523 148.448 83 149 83Z" fill="#3F3D56"/>
<path fill-rule="evenodd" clip-rule="evenodd" d="M213 49C213.552 49 214 48.5523 214 48C214 47.4477 213.552 47 213 47C212.448 47 212 47.4477 212 48C212 48.5523 212.448 49 213 49Z" fill="#3F3D56"/>
<path fill-rule="evenodd" clip-rule="evenodd" d="M206.156 227.974C206.357 228.027 206.571 227.998 206.751 227.894C206.931 227.789 207.063 227.618 207.116 227.416L220.974 175.302C221.027 175.1 220.998 174.886 220.894 174.706C220.79 174.525 220.618 174.394 220.416 174.34L147.844 155.026C147.643 154.973 147.429 155.002 147.248 155.106C147.068 155.211 146.937 155.382 146.884 155.584L133.026 207.699C133 207.798 132.993 207.902 133.007 208.005C133.021 208.107 133.054 208.205 133.106 208.295C133.158 208.384 133.226 208.462 133.308 208.525C133.39 208.587 133.484 208.633 133.584 208.66L206.156 227.974Z" fill="#E6E6E6"/>
<path fill-rule="evenodd" clip-rule="evenodd" d="M214.967 178.037L205.069 215.28C205.003 215.528 204.841 215.74 204.619 215.869C204.397 215.998 204.132 216.033 203.884 215.967L140.719 199.15C140.675 199.138 140.632 199.123 140.59 199.103C140.376 199.012 140.201 198.847 140.099 198.637C139.996 198.428 139.973 198.189 140.032 197.964L149.931 160.72C149.997 160.472 150.159 160.26 150.381 160.131C150.603 160.002 150.867 159.966 151.116 160.033L214.281 176.851C214.529 176.917 214.741 177.079 214.869 177.301C214.998 177.524 215.033 177.788 214.967 178.037V178.037Z" fill="white"/>
<path fill-rule="evenodd" clip-rule="evenodd" d="M206 210.074L204.604 215.29C204.538 215.535 204.378 215.744 204.157 215.871C203.936 215.998 203.674 216.033 203.428 215.968L140.714 199.386C140.67 199.375 140.627 199.359 140.586 199.34C140.373 199.25 140.2 199.087 140.098 198.881C139.996 198.674 139.973 198.439 140.032 198.216L141.428 193L206 210.074Z" fill="#3F3D56"/>
<path fill-rule="evenodd" clip-rule="evenodd" d="M178.665 205.567L169 203L168.743 203.966L178.407 206.533L178.665 205.567Z" fill="#CCCCCC"/>
<path fill-rule="evenodd" clip-rule="evenodd" d="M155.665 199.567L146 197L145.743 197.966L155.407 200.533L155.665 199.567Z" fill="#CCCCCC"/>
<path fill-rule="evenodd" clip-rule="evenodd" d="M201.665 211.567L192 209L191.743 209.966L201.407 212.533L201.665 211.567Z" fill="#CCCCCC"/>
<path fill-rule="evenodd" clip-rule="evenodd" d="M148 158C148.552 158 149 157.552 149 157C149 156.448 148.552 156 148 156C147.448 156 147 156.448 147 157C147 157.552 147.448 158 148 158Z" fill="#3F3D56"/>
<path fill-rule="evenodd" clip-rule="evenodd" d="M218 177C218.552 177 219 176.552 219 176C219 175.448 218.552 175 218 175C217.448 175 217 175.448 217 176C217 176.552 217.448 177 218 177Z" fill="#3F3D56"/>
<path fill-rule="evenodd" clip-rule="evenodd" d="M135 208C135.552 208 136 207.552 136 207C136 206.448 135.552 206 135 206C134.448 206 134 206.448 134 207C134 207.552 134.448 208 135 208Z" fill="#3F3D56"/>
<path fill-rule="evenodd" clip-rule="evenodd" d="M205 226C205.552 226 206 225.552 206 225C206 224.448 205.552 224 205 224C204.448 224 204 224.448 204 225C204 225.552 204.448 226 205 226Z" fill="#3F3D56"/>
<path fill-rule="evenodd" clip-rule="evenodd" d="M190.202 207.457L196 209L196.258 208.034L190.46 206.491L190.202 207.457Z" fill="#3F3D56"/>
<path fill-rule="evenodd" clip-rule="evenodd" d="M151 195.806L152.079 196.376L195.773 208L196.41 207.191C197.513 205.806 198.208 204.141 198.418 202.385C198.567 201.073 198.429 199.694 197.503 198.865L199 185.461L174.834 179L163.473 184.046C163.473 184.046 159.082 182.795 155.891 185.137C154.731 186.015 153.863 187.221 153.399 188.598L152.892 190.122L151 195.806Z" fill="#84CC16"/>
<path fill-rule="evenodd" clip-rule="evenodd" d="M160.5 204C163.538 204 166 201.538 166 198.5C166 195.462 163.538 193 160.5 193C157.462 193 155 195.462 155 198.5C155 201.538 157.462 204 160.5 204Z" fill="#3F3D56"/>
<path fill-rule="evenodd" clip-rule="evenodd" d="M161 202C162.657 202 164 200.657 164 199C164 197.343 162.657 196 161 196C159.343 196 158 197.343 158 199C158 200.657 159.343 202 161 202Z" fill="#CCCCCC"/>
<path fill-rule="evenodd" clip-rule="evenodd" d="M187.5 211C190.538 211 193 208.538 193 205.5C193 202.462 190.538 200 187.5 200C184.462 200 182 202.462 182 205.5C182 208.538 184.462 211 187.5 211Z" fill="#3F3D56"/>
<path fill-rule="evenodd" clip-rule="evenodd" d="M187 209C188.657 209 190 207.657 190 206C190 204.343 188.657 203 187 203C185.343 203 184 204.343 184 206C184 207.657 185.343 209 187 209Z" fill="#CCCCCC"/>
<path fill-rule="evenodd" clip-rule="evenodd" d="M167 184.474L180.242 187.881L181.859 188.297L184.588 189L184.641 188.807L185.281 186.49L186 183.888L184.184 183.421L182.568 183.004L179.705 182.266L178.088 181.851L174.783 181L167 184.474Z" fill="white"/>
<path fill-rule="evenodd" clip-rule="evenodd" d="M187 189.176L193.657 191L194.006 189.658L194.613 187.311L195 185.825L194.025 185.558L192.488 185.136L188.341 184L187 189.176Z" fill="white"/>
<path fill-rule="evenodd" clip-rule="evenodd" d="M182.034 194.743L183 195L183.516 193.068L182.55 192.81L182.034 194.743Z" fill="#3F3D56"/>
<path fill-rule="evenodd" clip-rule="evenodd" d="M169.742 186.966L170 186L168.067 185.486L167.809 186.452L169.742 186.966Z" fill="#3F3D56"/>
<path fill-rule="evenodd" clip-rule="evenodd" d="M170 187L169.903 186.974C169.416 186.845 169.004 186.517 168.756 186.063C168.509 185.609 168.446 185.066 168.583 184.553V184.553C168.72 184.041 169.045 183.601 169.486 183.33C169.927 183.059 170.448 182.98 170.935 183.11L171.032 183.135L170 187Z" fill="#3F3D56"/>
<path fill-rule="evenodd" clip-rule="evenodd" d="M153 189.809C153.646 190.05 154.359 190.063 155.014 189.846C155.669 189.628 156.224 189.193 156.58 188.619C156.937 188.044 157.072 187.366 156.963 186.704C156.854 186.042 156.507 185.438 155.983 185C154.829 185.847 153.966 187.01 153.505 188.339L153 189.809Z" fill="#3F3D56"/>
<path fill-rule="evenodd" clip-rule="evenodd" d="M183 183L185.292 189L186 186.604L184.787 183.431L183 183Z" fill="#F2F2F2"/>
<path fill-rule="evenodd" clip-rule="evenodd" d="M193 185L194.429 189L195 186.924L194.447 185.374L193 185Z" fill="#F2F2F2"/>
<path fill-rule="evenodd" clip-rule="evenodd" d="M178 182L180.285 187.613L182 188L179.715 182.387L178 182Z" fill="#F2F2F2"/>
<path fill-rule="evenodd" clip-rule="evenodd" d="M11.5 91C13.433 91 15 89.433 15 87.5C15 85.567 13.433 84 11.5 84C9.567 84 8 85.567 8 87.5C8 89.433 9.567 91 11.5 91Z" fill="#84CC16"/>
<path opacity="0.2" fill-rule="evenodd" clip-rule="evenodd" d="M12.9263 85C13.5626 85.59 13.9709 86.3942 14.077 87.2664C14.183 88.1386 13.9799 89.0208 13.5044 89.7525C13.0289 90.4843 12.3127 91.017 11.486 91.2537C10.6594 91.4904 9.77721 91.4154 9 91.0423C9.3819 91.3987 9.83451 91.6663 10.3268 91.8269C10.8191 91.9874 11.3395 92.0371 11.8523 91.9726C12.3652 91.908 12.8583 91.7307 13.2979 91.4528C13.7376 91.1749 14.1134 90.803 14.3997 90.3625C14.6859 89.9221 14.8757 89.4234 14.9562 88.9008C15.0367 88.3782 15.006 87.844 14.866 87.3347C14.7261 86.8254 14.4803 86.3531 14.1455 85.9501C13.8107 85.5472 13.3948 85.223 12.9263 85Z" fill="black"/>
<path fill-rule="evenodd" clip-rule="evenodd" d="M104 95C108.971 95 113 93.433 113 91.5C113 89.567 108.971 88 104 88C99.0294 88 95 89.567 95 91.5C95 93.433 99.0294 95 104 95Z" fill="#3F3D56"/>
<path opacity="0.2" fill-rule="evenodd" clip-rule="evenodd" d="M102.831 88C102.55 88 102.273 88.006 102 88.0179C106.122 88.1963 109.338 89.6872 109.338 91.5C109.338 93.3128 106.122 94.8037 102 94.9821C102.273 94.9939 102.55 94.9999 102.831 95C107.343 95 111 93.433 111 91.5C111 89.567 107.343 88 102.831 88Z" fill="black"/>
<path fill-rule="evenodd" clip-rule="evenodd" d="M115.108 91.6487H71.0872V86.8919C71.0872 86.6553 70.9932 86.4285 70.8258 86.2612C70.6585 86.094 70.4315 86 70.1949 86H45.8051C45.5685 86 45.3415 86.094 45.1742 86.2612C45.0068 86.4285 44.9128 86.6553 44.9128 86.8919V91.6487H19.3333V88.6757C19.3333 88.4391 19.2393 88.2123 19.072 88.045C18.9046 87.8778 18.6777 87.7838 18.441 87.7838H5.35385C5.11719 87.7838 4.89023 87.8778 4.72289 88.045C4.55555 88.2123 4.46154 88.4391 4.46154 88.6757V91.6487H0.89231C0.77509 91.6485 0.65899 91.6715 0.55066 91.7162C0.44233 91.761 0.3439 91.8267 0.26101 91.9095C0.17812 91.9924 0.1124 92.0908 0.06761 92.199C0.02282 92.3073 -0.00015 92.4234 0 92.5405V151.108C-0.00016 151.225 0.02282 151.341 0.06761 151.45C0.1124 151.558 0.17812 151.656 0.26101 151.739C0.3439 151.822 0.44233 151.888 0.55066 151.932C0.65899 151.977 0.77509 152 0.89231 152H115.108C115.225 152 115.341 151.977 115.449 151.932C115.558 151.888 115.656 151.822 115.739 151.739C115.822 151.656 115.888 151.558 115.932 151.45C115.977 151.341 116 151.225 116 151.108V92.5405C116 92.4234 115.977 92.3073 115.932 92.199C115.888 92.0908 115.822 91.9924 115.739 91.9095C115.656 91.8267 115.558 91.761 115.449 91.7162C115.341 91.6715 115.225 91.6485 115.108 91.6487V91.6487Z" fill="#3F3D56"/>
<path opacity="0.2" fill-rule="evenodd" clip-rule="evenodd" d="M115.108 147.882H0.89231C0.77509 147.883 0.65899 147.86 0.55065 147.816C0.44232 147.771 0.34389 147.706 0.261 147.624C0.17811 147.542 0.11239 147.445 0.0676 147.338C0.02281 147.231 -0.00016 147.116 -1e-05 147V151.118C-0.00017 151.234 0.02281 151.348 0.0676 151.455C0.11239 151.563 0.17811 151.66 0.261 151.742C0.34389 151.824 0.44232 151.889 0.55065 151.933C0.65898 151.977 0.77508 152 0.89231 152H115.108C115.225 152 115.341 151.977 115.449 151.933C115.558 151.889 115.656 151.824 115.739 151.742C115.822 151.66 115.888 151.563 115.932 151.455C115.977 151.348 116 151.234 116 151.118V147C116 147.116 115.977 147.231 115.932 147.338C115.888 147.445 115.822 147.542 115.739 147.624C115.656 147.706 115.558 147.771 115.449 147.816C115.341 147.86 115.225 147.883 115.108 147.882V147.882Z" fill="black"/>
<path opacity="0.2" fill-rule="evenodd" clip-rule="evenodd" d="M116 119H0V130H116V119Z" fill="black"/>
<path opacity="0.2" fill-rule="evenodd" clip-rule="evenodd" d="M116 113H0V124H116V113Z" fill="black"/>
<path fill-rule="evenodd" clip-rule="evenodd" d="M116 116H0V127H116V116Z" fill="#84CC16"/>
<path fill-rule="evenodd" clip-rule="evenodd" d="M57.5 144C69.9264 144 80 133.926 80 121.5C80 109.074 69.9264 99 57.5 99C45.0736 99 35 109.074 35 121.5C35 133.926 45.0736 144 57.5 144Z" fill="#84CC16"/>
<path opacity="0.2" fill-rule="evenodd" clip-rule="evenodd" d="M74.8191 108C77.6879 112.897 78.6112 118.696 77.405 124.244C76.1989 129.792 72.9518 134.681 68.3101 137.939C63.6684 141.197 57.9724 142.584 52.3559 141.825C46.7393 141.066 41.614 138.216 38 133.842C39.5761 136.533 41.6914 138.867 44.2126 140.699C46.7338 142.53 49.6063 143.818 52.6491 144.482C55.6918 145.146 58.8389 145.172 61.8919 144.557C64.945 143.943 67.8379 142.701 70.3884 140.911C72.9389 139.121 75.0917 136.821 76.7111 134.156C78.3305 131.491 79.3814 128.519 79.7976 125.428C80.2139 122.336 79.9864 119.191 79.1296 116.192C78.2727 113.192 76.8051 110.403 74.8191 108Z" fill="black"/>
<path fill-rule="evenodd" clip-rule="evenodd" d="M57.5 138C66.6127 138 74 130.613 74 121.5C74 112.387 66.6127 105 57.5 105C48.3873 105 41 112.387 41 121.5C41 130.613 48.3873 138 57.5 138Z" fill="#3F3D56"/>
<path fill-rule="evenodd" clip-rule="evenodd" d="M71 121.998C71.0026 123.763 70.6437 125.509 69.9453 127.13C69.5713 128.004 69.1006 128.833 68.5421 129.603C67.4411 131.13 66.0213 132.4 64.3809 133.325C62.7406 134.25 60.919 134.807 59.0421 134.958C57.1652 135.109 55.2778 134.851 53.5106 134.201C51.7434 133.551 50.1385 132.525 48.807 131.193C47.4755 129.862 46.4492 128.257 45.7992 126.49C45.1491 124.722 44.8907 122.835 45.042 120.958C45.1933 119.081 45.7506 117.26 46.6753 115.619C47.6 113.979 48.8701 112.559 50.3976 111.458C51.1669 110.9 51.9962 110.429 52.8702 110.055C54.8476 109.206 57.0048 108.861 59.1484 109.051C61.2919 109.241 63.3548 109.96 65.1518 111.144C66.9489 112.328 68.4239 113.939 69.4447 115.834C70.4654 117.728 70.9998 119.847 71 121.998H71Z" fill="white"/>
<path opacity="0.2" fill-rule="evenodd" clip-rule="evenodd" d="M70.8609 120.262C70.3754 116.992 68.6318 114.033 65.9929 112C67.1364 113.768 67.8245 115.786 67.9972 117.878C68.1699 119.969 67.8219 122.07 66.9837 123.998C66.6089 124.863 66.1374 125.684 65.5778 126.445C64.5532 127.849 63.2521 129.034 61.7525 129.929C60.2529 130.824 58.5857 131.411 56.8509 131.655C55.1161 131.898 53.3493 131.793 51.6566 131.346C49.9639 130.899 48.38 130.118 47 129.052C48.1421 130.822 49.7059 132.29 51.5546 133.326C53.4033 134.362 55.4808 134.935 57.6055 134.995C59.7302 135.055 61.8374 134.6 63.7431 133.67C65.6487 132.74 67.2948 131.364 68.5375 129.66C69.0971 128.899 69.5687 128.079 69.9434 127.214C70.8947 125.025 71.2123 122.619 70.8609 120.262V120.262Z" fill="black"/>
</g>
</g>
<defs>
<clipPath id="clip0_0_6541">
<rect width="224" height="228" fill="white"/>
</clipPath>
</defs>
</svg>
