<svg width="294" height="228" viewBox="0 0 294 228" fill="none" xmlns="http://www.w3.org/2000/svg">
<g clip-path="url(#clip0_0_6827)">
<mask id="mask0_0_6827" style="mask-type:luminance" maskUnits="userSpaceOnUse" x="0" y="0" width="294" height="228">
<path fill-rule="evenodd" clip-rule="evenodd" d="M0 0H294V228H0V0Z" fill="white"/>
</mask>
<g mask="url(#mask0_0_6827)">
<path fill-rule="evenodd" clip-rule="evenodd" d="M258.765 129.02L265.229 122.583C264.64 118.316 263.81 114.085 262.742 109.911L259.058 111.767L262.368 108.471C260.996 103.323 259.76 100 259.76 100C259.76 100 246.732 113.204 239.998 128.688L244.17 139.603L238.462 132.586C237.811 134.418 237.276 136.289 236.861 138.188C232.742 157.347 235.689 174.218 243.445 175.869C251.201 177.521 260.828 163.329 264.948 144.17C266.225 138.23 266.211 131.729 265.585 125.584L258.765 129.02Z" fill="#E6E6E6"/>
<path fill-rule="evenodd" clip-rule="evenodd" d="M278.227 143.184L287.02 141.012C288.715 137.08 290.188 133.056 291.43 128.958L287.351 128.653L291.853 127.542C293.339 122.459 294 119 294 119C294 119 276.161 123.574 262.486 133.306L260.408 144.726L259.178 135.837C257.684 137.063 256.268 138.382 254.939 139.785C241.59 153.981 235.41 169.843 241.137 175.214C246.863 180.585 262.327 173.432 275.676 159.236C279.815 154.836 283.148 149.296 285.778 143.748L278.227 143.184Z" fill="#E6E6E6"/>
<path fill-rule="evenodd" clip-rule="evenodd" d="M193.97 63.4192L196.132 46.3987C190.352 40.7113 184.258 35.3554 177.878 30.3564L174.561 37.3537L175.668 28.6391C167.717 22.5364 162.066 19 162.066 19C162.066 19 157.975 53.6473 165.82 84.4679L184.546 95.9561L168.03 92.0451C169.174 95.5246 170.535 98.9285 172.105 102.237C188.043 135.537 211.807 157.312 225.183 150.871C238.559 144.431 236.481 112.214 220.543 78.913C215.602 68.5894 208.104 58.9099 200.11 50.4655L193.97 63.4192Z" fill="#E6E6E6"/>
<path fill-rule="evenodd" clip-rule="evenodd" d="M237.758 61.692L248.457 48.2114C246.426 40.3283 243.951 32.5657 241.045 24.9607L234.554 29.2409L240.031 22.3389C236.344 12.9707 233.307 7 233.307 7C233.307 7 211.797 34.6025 202.563 65.124L212.746 84.7129L200.536 72.7743C199.717 76.3542 199.123 79.982 198.76 83.6364C195.217 120.492 204.404 151.525 219.279 152.949C234.154 154.374 249.085 125.651 252.627 88.7954C253.725 77.3697 252.285 65.1679 249.776 53.7682L237.758 61.692Z" fill="#E6E6E6"/>
<path fill-rule="evenodd" clip-rule="evenodd" d="M41.3008 65.2217L40.2255 47.4013C33.2003 42.7082 25.916 38.415 18.4073 34.5424L16.36 42.3396L15.8095 33.2155C6.4773 28.5191 0 26 0 26C0 26 2.5068 62.2153 16.5106 92.2027L37.9326 100.314L20.2426 99.5203C22.0883 102.856 24.142 106.072 26.3913 109.149C49.1735 140.102 77.7496 157.752 90.2177 148.572C102.686 139.392 94.3246 106.858 71.5424 75.9058C64.4796 66.3103 54.92 57.8693 45.0907 50.7873L41.3008 65.2217Z" fill="#E6E6E6"/>
<path fill-rule="evenodd" clip-rule="evenodd" d="M85.8788 55.0664L94.1824 39.2154C90.5879 31.5466 86.5641 24.0868 82.1302 16.8715L76.3381 22.5021L80.5896 14.3864C75.0185 5.51903 70.7683 0 70.7683 0C70.7683 0 54.1691 32.3797 50.6529 65.3734L64.8231 83.4375L50.0648 73.5877C49.9208 77.4067 50.0169 81.2311 50.3525 85.0381C53.8642 123.41 69.2308 153.368 84.6747 151.952C100.119 150.536 109.792 118.281 106.28 79.9096C105.191 68.014 101.364 55.8152 96.6015 44.6429L85.8788 55.0664Z" fill="#E6E6E6"/>
<path fill-rule="evenodd" clip-rule="evenodd" d="M132 216C138.075 216 143 214.657 143 213C143 211.343 138.075 210 132 210C125.925 210 121 211.343 121 213C121 214.657 125.925 216 132 216Z" fill="#E6E6E6"/>
<path fill-rule="evenodd" clip-rule="evenodd" d="M252 228C258.075 228 263 226.657 263 225C263 223.343 258.075 222 252 222C245.925 222 241 223.343 241 225C241 226.657 245.925 228 252 228Z" fill="#E6E6E6"/>
<path fill-rule="evenodd" clip-rule="evenodd" d="M275 202C281.075 202 286 200.657 286 199C286 197.343 281.075 196 275 196C268.925 196 264 197.343 264 199C264 200.657 268.925 202 275 202Z" fill="#E6E6E6"/>
<path fill-rule="evenodd" clip-rule="evenodd" d="M229.5 194C234.194 194 238 192.881 238 191.5C238 190.119 234.194 189 229.5 189C224.806 189 221 190.119 221 191.5C221 192.881 224.806 194 229.5 194Z" fill="#E6E6E6"/>
<path fill-rule="evenodd" clip-rule="evenodd" d="M49.5 192C52.5376 192 55 191.105 55 190C55 188.895 52.5376 188 49.5 188C46.4624 188 44 188.895 44 190C44 191.105 46.4624 192 49.5 192Z" fill="#E6E6E6"/>
<path fill-rule="evenodd" clip-rule="evenodd" d="M28.5 211C31.5376 211 34 210.105 34 209C34 207.895 31.5376 207 28.5 207C25.4624 207 23 207.895 23 209C23 210.105 25.4624 211 28.5 211Z" fill="#E6E6E6"/>
<path fill-rule="evenodd" clip-rule="evenodd" d="M28.5 181C31.5376 181 34 180.105 34 179C34 177.895 31.5376 177 28.5 177C25.4624 177 23 177.895 23 179C23 180.105 25.4624 181 28.5 181Z" fill="#E6E6E6"/>
<path fill-rule="evenodd" clip-rule="evenodd" d="M263.298 183.878L210.125 181.991L182.083 184.674L134.176 189.258L116.147 190.982L74.3952 204.952C74.2276 205.008 74.0476 205.015 73.876 204.973C73.7045 204.93 73.5484 204.84 73.426 204.712C73.3035 204.584 73.2197 204.424 73.1842 204.251C73.1487 204.077 73.163 203.897 73.2255 203.731L73.2286 203.728L80.4695 184.514L79.7075 183.951L59.7817 169.261L59.675 169.182L33.838 165.23C33.4743 165.174 33.1307 165.026 32.8398 164.8C32.5489 164.574 32.3202 164.277 32.1752 163.938C32.0302 163.599 31.9738 163.228 32.0112 162.861C32.0487 162.493 32.1788 162.142 32.3892 161.839L71.739 105.187L92.4174 75.4236L94.6596 72.1924L180.679 71L264.662 181.229C264.851 181.477 264.966 181.774 264.994 182.086C265.021 182.397 264.96 182.71 264.817 182.987C264.674 183.265 264.455 183.496 264.186 183.654C263.917 183.811 263.609 183.889 263.298 183.878H263.298Z" fill="#84CC16"/>
<path opacity="0.2" fill-rule="evenodd" clip-rule="evenodd" d="M115 77.4293L79.914 184L60 169.391L71.951 105.671L92.5593 76L92.6179 76.0692L115 77.4293Z" fill="black"/>
<path fill-rule="evenodd" clip-rule="evenodd" d="M84.0195 117.656C79.9659 127.258 78.5308 135.278 73.7226 133.83C67.1399 131.847 74.0515 124.834 78.1051 115.232C82.1587 105.63 85.0229 98.2649 88.402 99.0586C94.7017 100.538 88.0731 108.055 84.0195 117.656Z" fill="#3F3D56"/>
<path fill-rule="evenodd" clip-rule="evenodd" d="M92 98.388C91.999 97.7833 91.8744 97.1848 91.6333 96.6265C91.3922 96.0682 91.0394 95.5611 90.5949 95.1342C90.1504 94.7073 89.623 94.369 89.0429 94.1385C88.4627 93.908 87.8411 93.7899 87.2135 93.7908C87.1057 93.791 86.9991 93.7958 86.893 93.8028L82.3835 93.2667C81.866 93.089 81.3205 92.9988 80.7712 93C80.6194 93.0002 80.4696 93.0081 80.3215 93.0216L80.1478 93.001L80.1432 93.0418C79.0848 93.1787 78.1046 93.6532 77.3588 94.3895C76.613 95.1259 76.1446 96.0817 76.0284 97.1045C75.9122 98.1272 76.1548 99.158 76.7176 100.032C77.2804 100.907 78.1309 101.574 79.1334 101.929L79.124 102.012L79.5676 102.059C79.9655 102.16 80.3752 102.21 80.7865 102.209C80.8321 102.209 80.8772 102.207 80.9225 102.206L85.5325 102.703C86.0745 102.901 86.6494 103.001 87.2289 103C87.4449 102.999 87.6607 102.985 87.8747 102.956L88.2677 102.998L88.2701 102.887C89.33 102.657 90.2769 102.087 90.9549 101.269C91.6329 100.451 92.0015 99.4347 92 98.388V98.388Z" fill="#84CC16"/>
<path opacity="0.2" fill-rule="evenodd" clip-rule="evenodd" d="M92 98.388C91.999 97.7833 91.8744 97.1848 91.6333 96.6265C91.3922 96.0682 91.0394 95.5611 90.5949 95.1342C90.1504 94.7073 89.623 94.369 89.0429 94.1385C88.4627 93.908 87.8411 93.7899 87.2135 93.7908C87.1057 93.791 86.9991 93.7958 86.893 93.8028L82.3835 93.2667C81.866 93.089 81.3205 92.9988 80.7712 93C80.6194 93.0002 80.4696 93.0081 80.3215 93.0216L80.1478 93.001L80.1432 93.0418C79.0848 93.1787 78.1046 93.6532 77.3588 94.3895C76.613 95.1259 76.1446 96.0817 76.0284 97.1045C75.9122 98.1272 76.1548 99.158 76.7176 100.032C77.2804 100.907 78.1309 101.574 79.1334 101.929L79.124 102.012L79.5676 102.059C79.9655 102.16 80.3752 102.21 80.7865 102.209C80.8321 102.209 80.8772 102.207 80.9225 102.206L85.5325 102.703C86.0745 102.901 86.6494 103.001 87.2289 103C87.4449 102.999 87.6607 102.985 87.8747 102.956L88.2677 102.998L88.2701 102.887C89.33 102.657 90.2769 102.087 90.9549 101.269C91.6329 100.451 92.0015 99.4347 92 98.388V98.388Z" fill="white"/>
<path fill-rule="evenodd" clip-rule="evenodd" d="M27.5516 164L27 163.708C41.1279 136.569 81.0865 78.5825 81.4885 78L82 78.3584C81.5983 78.9406 41.6614 136.895 27.5516 164V164Z" fill="#3F3D56"/>
<path fill-rule="evenodd" clip-rule="evenodd" d="M71.6036 206L71 205.834C71.2924 204.749 100.362 97.1508 110.454 79L111 79.3089C100.945 97.3925 71.8959 204.916 71.6036 206V206Z" fill="#3F3D56"/>
<path fill-rule="evenodd" clip-rule="evenodd" d="M266.466 184C250.999 158.413 192.588 79.1707 192 78.3731L192.502 78C193.09 78.7976 251.518 158.064 267 183.675L266.466 184Z" fill="#3F3D56"/>
<path fill-rule="evenodd" clip-rule="evenodd" d="M71.0096 208.997C72.1142 208.995 73.0075 207.65 73.0048 205.994C73.0022 204.337 72.1046 202.995 71 202.997C69.8954 202.999 69.0022 204.343 69.0048 206C69.0075 207.657 69.9051 208.999 71.0096 208.997Z" fill="#3F3D56"/>
<path fill-rule="evenodd" clip-rule="evenodd" d="M28.0096 165.997C29.1142 165.995 30.0075 164.65 30.0048 162.994C30.0022 161.337 29.1046 159.995 28 159.997C26.8954 159.999 26.0022 161.343 26.0048 163C26.0075 164.657 26.9051 165.999 28.0096 165.997Z" fill="#3F3D56"/>
<path fill-rule="evenodd" clip-rule="evenodd" d="M267.01 185.997C268.114 185.995 269.007 184.65 269.005 182.994C269.002 181.337 268.105 179.995 267 179.997C265.895 179.999 265.002 181.343 265.005 183C265.007 184.657 265.905 185.999 267.01 185.997Z" fill="#3F3D56"/>
<path fill-rule="evenodd" clip-rule="evenodd" d="M80 80.7432L199 82C198.917 72.421 194.997 63.2623 188.094 56.5193C181.19 49.7762 171.863 45.9952 162.144 46L116.729 46.072C97.7328 46.1021 81.6482 60.7433 80.1106 79.404L80 80.7432Z" fill="#3F3D56"/>
<path opacity="0.2" fill-rule="evenodd" clip-rule="evenodd" d="M184.037 121H140.963C140.438 121 139.919 121.103 139.435 121.306C138.951 121.508 138.512 121.805 138.143 122.178C137.775 122.552 137.484 122.995 137.288 123.483C137.091 123.97 136.994 124.491 137 125.017L137.038 128.173L137.421 161.961L137.427 162.613L137.439 163.688L137.452 164.739L137.523 171.074C137.535 172.104 137.946 173.09 138.67 173.823C139.394 174.555 140.373 174.977 141.402 175C141.508 175 141.617 174.997 141.726 174.991L151.954 174.367L166.752 173.463L171.975 173.144L173.14 173.073L181.279 172.577H181.283L184.277 172.393C185.284 172.33 186.23 171.885 186.922 171.149C187.613 170.413 187.999 169.44 188 168.429V124.97C187.999 123.917 187.581 122.908 186.838 122.164C186.095 121.42 185.088 121.001 184.037 121H184.037Z" fill="black"/>
<path fill-rule="evenodd" clip-rule="evenodd" d="M194.022 114.927C193.864 114.94 193.711 114.988 193.573 115.069C193.436 115.149 193.317 115.26 193.227 115.392L188.414 115.4V114.098C188.413 113.012 187.989 111.97 187.236 111.202C186.483 110.433 185.461 110.001 184.396 110H140.719C140.187 109.999 139.661 110.107 139.17 110.316C138.679 110.524 138.234 110.831 137.86 111.216C137.486 111.602 137.191 112.06 136.992 112.563C136.793 113.066 136.694 113.604 136.701 114.147L136.717 115.485L133.613 115.49C133.443 115.305 133.209 115.195 132.961 115.182C131.873 115.184 130.995 117.607 131 120.594C131.005 123.582 131.89 126.002 132.978 126C133.168 125.979 133.35 125.912 133.508 125.804C133.667 125.696 133.798 125.551 133.89 125.38L193.242 125.283C193.333 125.415 193.452 125.525 193.59 125.605C193.727 125.685 193.881 125.733 194.039 125.745C195.127 125.744 196.005 123.32 196 120.333C195.995 117.346 195.11 114.925 194.022 114.927Z" fill="#84CC16"/>
<path opacity="0.2" fill-rule="evenodd" clip-rule="evenodd" d="M194.022 114.927C193.864 114.94 193.711 114.988 193.573 115.069C193.436 115.149 193.317 115.26 193.227 115.392L188.414 115.4V114.098C188.413 113.012 187.989 111.97 187.236 111.202C186.483 110.433 185.461 110.001 184.396 110H140.719C140.187 109.999 139.661 110.107 139.17 110.316C138.679 110.524 138.234 110.831 137.86 111.216C137.486 111.602 137.191 112.06 136.992 112.563C136.793 113.066 136.694 113.604 136.701 114.147L136.717 115.485L133.613 115.49C133.443 115.305 133.209 115.195 132.961 115.182C131.873 115.184 130.995 117.607 131 120.594C131.005 123.582 131.89 126.002 132.978 126C133.168 125.979 133.35 125.912 133.508 125.804C133.667 125.696 133.798 125.551 133.89 125.38L193.242 125.283C193.333 125.415 193.452 125.525 193.59 125.605C193.727 125.685 193.881 125.733 194.039 125.745C195.127 125.744 196.005 123.32 196 120.333C195.995 117.346 195.11 114.925 194.022 114.927Z" fill="white"/>
<path fill-rule="evenodd" clip-rule="evenodd" d="M188.211 182.306C187.931 182.577 187.594 182.778 187.226 182.892C186.858 183.006 186.47 183.03 186.091 182.963C185.713 182.896 185.354 182.74 185.044 182.506C184.734 182.273 184.48 181.968 184.303 181.617L182 177.05L182.916 175L187.852 178.263C188.172 178.474 188.44 178.758 188.638 179.093C188.835 179.427 188.955 179.804 188.99 180.194C189.024 180.584 188.972 180.977 188.837 181.343C188.702 181.709 188.488 182.039 188.211 182.306Z" fill="#FFB8B8"/>
<path fill-rule="evenodd" clip-rule="evenodd" d="M197.987 207.939C197.935 207.401 197.702 206.905 197.334 206.546C196.967 206.187 196.491 205.993 195.999 206C195.552 205.997 195.117 206.159 194.763 206.461C194.409 206.763 194.158 207.186 194.05 207.664V207.664L192.1 218.087C192.035 218.392 192.002 218.703 192 219.016C192 221.367 193.787 223 195.999 223C198.212 223 200 221.367 200 219.016C199.999 218.64 199.952 218.265 199.862 217.902L197.987 207.939Z" fill="#3F3D56"/>
<path fill-rule="evenodd" clip-rule="evenodd" d="M214.073 212.536C213.866 212.347 213.643 212.177 213.407 212.028L205.625 206.354C204.867 205.858 204.058 205.872 203.47 206.471C203.214 206.725 203.051 207.066 203.01 207.433C202.969 207.8 203.053 208.17 203.247 208.479L209.123 216.537C209.257 216.732 209.407 216.915 209.57 217.085C210.589 218.272 212.848 218.338 214.089 217.085C215.314 215.811 215.299 213.54 214.073 212.536L214.073 212.536Z" fill="#3F3D56"/>
<path fill-rule="evenodd" clip-rule="evenodd" d="M220.087 205.001H212.018C211.759 204.992 211.507 205.076 211.316 205.236C211.126 205.396 211.012 205.618 211 205.854C210.996 206.072 211.072 206.285 211.216 206.458C211.359 206.632 211.563 206.757 211.793 206.813L219.405 208.962C220.51 209.198 222 208.298 222 207.174C222 205.745 221.129 205.001 220.087 205.001V205.001Z" fill="#3F3D56"/>
<path fill-rule="evenodd" clip-rule="evenodd" d="M181.994 205.856C181.985 205.734 181.951 205.616 181.892 205.507C181.832 205.398 181.75 205.302 181.65 205.222C181.549 205.143 181.432 205.082 181.306 205.045C181.18 205.007 181.046 204.993 180.914 205.003H172.868C171.855 205.003 171 206.004 171 207.126C171 208.248 172.442 209.199 173.548 208.964L181.252 206.817C181.483 206.768 181.687 206.643 181.823 206.465C181.96 206.288 182.021 206.071 181.994 205.856Z" fill="#3F3D56"/>
<path fill-rule="evenodd" clip-rule="evenodd" d="M187.367 206.362L179.607 212.031C179.366 212.174 179.141 212.345 178.937 212.541C178.367 213.099 178.03 213.871 178.002 214.689C177.974 215.507 178.256 216.303 178.787 216.902C178.835 216.956 178.885 217.009 178.937 217.06C179.546 217.664 180.351 218 181.189 218C182.026 218 182.832 217.664 183.44 217.06C183.606 216.893 183.756 216.709 183.887 216.511L189.749 208.471C189.946 208.165 190.031 207.795 189.99 207.428C189.949 207.062 189.785 206.723 189.526 206.472C189.237 206.189 188.861 206.022 188.466 206.002C188.07 205.982 187.681 206.109 187.367 206.362H187.367Z" fill="#3F3D56"/>
<path fill-rule="evenodd" clip-rule="evenodd" d="M198.862 196.099C198.948 195.964 198.996 195.804 199 195.64C199 194.673 197.212 194 194.999 194C192.787 194 191 194.673 191 195.64C191.003 195.775 191.037 195.906 191.1 196.023L193.05 200.315C193.273 200.72 194.079 201.003 194.999 201C196.038 201 196.9 200.65 196.987 200.202L198.862 196.099Z" fill="#3F3D56"/>
<path fill-rule="evenodd" clip-rule="evenodd" d="M213.089 196.381C211.848 195.859 209.589 195.887 208.57 196.381C208.416 196.447 208.267 196.523 208.123 196.609L202.247 199.965C201.847 200.231 201.941 200.583 202.47 200.802C203.166 201.048 203.92 201.065 204.625 200.85L212.407 198.487C212.633 198.429 212.855 198.358 213.073 198.276C214.299 197.857 214.313 196.912 213.089 196.381H213.089Z" fill="#3F3D56"/>
<path fill-rule="evenodd" clip-rule="evenodd" d="M222 200.913C222 200.351 220.51 199.901 219.405 200.019L211.793 201.094C211.338 201.162 211 201.321 211 201.573C211 201.825 211.496 202 212.017 202H220.086C221.129 202 222 201.628 222 200.913Z" fill="#3F3D56"/>
<path fill-rule="evenodd" clip-rule="evenodd" d="M180.258 201.092L172.549 200.018C171.443 199.9 170 200.376 170 200.938C170 201.499 170.855 202 171.869 202H179.92C180.48 202 181 201.835 181 201.573C181 201.312 180.76 201.161 180.258 201.092V201.092Z" fill="#3F3D56"/>
<path fill-rule="evenodd" clip-rule="evenodd" d="M188.528 200.803C189.077 200.58 189.142 200.242 188.751 199.97L182.888 196.62C182.745 196.532 182.596 196.455 182.441 196.392C180.983 195.869 179.396 195.869 177.937 196.392C177.885 196.413 177.835 196.435 177.787 196.458C176.682 196.977 176.749 197.791 177.937 198.274C178.155 198.361 178.379 198.432 178.607 198.487L186.368 200.849C187.075 201.065 187.83 201.049 188.528 200.803Z" fill="#3F3D56"/>
<path fill-rule="evenodd" clip-rule="evenodd" d="M212 195.344C212 207.77 205.049 208 196.475 208C187.9 208 173.822 205.542 180.949 195.344C188.465 184.588 201.36 164.086 196.475 163C196.475 163 212 182.917 212 195.344Z" fill="#F9A825"/>
<path opacity="0.5" fill-rule="evenodd" clip-rule="evenodd" d="M202 202.938C202 207.908 199.262 208 195.884 208C192.506 208 186.96 207.017 189.768 202.938C192.729 198.635 197.809 190.434 195.884 190C195.884 190 202 197.967 202 202.938H202Z" fill="#FF6584"/>
<path fill-rule="evenodd" clip-rule="evenodd" d="M189 166.511V168.653C188.999 169.63 188.61 170.57 187.913 171.281C187.215 171.993 186.262 172.422 185.246 172.483L142.341 174.993C141.8 175.025 141.259 174.951 140.75 174.775C140.24 174.6 139.773 174.327 139.377 173.973C138.98 173.619 138.663 173.192 138.444 172.716C138.225 172.241 138.109 171.728 138.104 171.208L138 162.404L163.954 162L189 166.511Z" fill="#3F3D56"/>
<path fill-rule="evenodd" clip-rule="evenodd" d="M180.683 177.92L161.611 167.798C161.523 167.752 161.446 167.686 161.384 167.607C161.323 167.527 161.279 167.435 161.255 167.337L157.118 150.3C156.878 149.311 157.007 148.267 157.481 147.371C157.955 146.475 158.739 145.792 159.68 145.455L160.677 145.099C160.899 145.019 161.135 144.987 161.37 145.005C161.605 145.022 161.833 145.088 162.042 145.2C162.251 145.311 162.435 145.465 162.583 145.652C162.731 145.839 162.84 146.055 162.903 146.287L166.98 161.287C167.019 161.427 167.098 161.552 167.208 161.645L182.747 174.801C182.881 174.914 182.969 175.075 182.993 175.251C183.017 175.427 182.976 175.606 182.878 175.753L181.581 177.689C181.485 177.833 181.341 177.936 181.175 177.979C181.01 178.021 180.835 178 180.683 177.92H180.683Z" fill="#E6E6E6"/>
<path fill-rule="evenodd" clip-rule="evenodd" d="M168.66 151C159.3 145.998 149.502 143.487 139 144.979C142.166 139.534 144.517 134.499 144.36 130.731C144.292 129.52 144.518 128.31 145.018 127.208C145.518 126.106 146.277 125.146 147.227 124.411C148.757 123.26 150.611 122.638 152.516 122.639V122.639C154.216 121.87 156.143 121.792 157.898 122.422C158.643 122.707 159.32 123.148 159.886 123.716C160.452 124.285 160.893 124.968 161.181 125.722C161.54 126.604 162.313 127.378 163.434 128.059C164.473 128.669 165.319 129.566 165.874 130.646C166.612 132.138 166.663 133.64 165.695 135.156C169.32 139.021 169.33 144.828 168.66 151V151Z" fill="#2F2E41"/>
<path fill-rule="evenodd" clip-rule="evenodd" d="M155.5 138C159.09 138 162 135.09 162 131.5C162 127.91 159.09 125 155.5 125C151.91 125 149 127.91 149 131.5C149 135.09 151.91 138 155.5 138Z" fill="#FFB8B8"/>
<path fill-rule="evenodd" clip-rule="evenodd" d="M159 146.2L151 147C151.429 142.416 151.598 138.186 151 135H159C157.481 140.073 157.614 143.689 159 146.2V146.2Z" fill="#FFB8B8"/>
<path fill-rule="evenodd" clip-rule="evenodd" d="M162.934 145.898C162.928 146.595 162.913 147.285 162.89 147.967C162.732 152.85 162.132 157.246 160.497 160.483C160.165 161.153 159.768 161.788 159.313 162.377C159.31 162.383 159.306 162.388 159.301 162.393C159.269 162.438 159.235 162.48 159.198 162.52C158.864 162.945 158.492 163.339 158.088 163.695L154.977 167.037L154.834 167.19L153.927 167.811L149.252 171L138.025 164.822L138.012 163.749L138 162.651C140.496 159.029 142.053 154.318 143.042 148.954C143.312 147.487 143.542 145.968 143.738 144.409C143.871 143.33 143.99 142.228 144.092 141.111C144.108 140.768 144.221 140.437 144.418 140.159C144.418 140.159 144.419 140.159 144.419 140.158C144.419 140.158 144.419 140.157 144.419 140.157C144.42 140.157 144.42 140.157 144.42 140.156C144.421 140.156 144.421 140.156 144.422 140.156C144.9 139.532 145.851 139.545 147.001 139.481C148.614 139.392 150.203 138.536 151.63 139.344C151.665 139.361 151.699 139.38 151.732 139.402L155.919 144.164L157.843 142.041L157.933 141.942L161.896 143.68C162.301 143.859 162.629 144.182 162.82 144.59C163.011 144.998 163.051 145.463 162.934 145.898Z" fill="#E6E6E6"/>
<path fill-rule="evenodd" clip-rule="evenodd" d="M154 169.218C154 170.002 153.851 170.778 153.561 171.507L152.417 174.376L142.257 174.991C142.149 174.997 142.041 175 141.936 175C140.914 174.978 139.941 174.562 139.222 173.84C138.504 173.119 138.095 172.147 138.083 171.132L138.012 164.893L138 163.857L141.698 165.415L145.303 163.492C145.499 163.408 145.701 163.336 145.906 163.277C146.173 163.193 146.446 163.128 146.722 163.083H146.725C146.858 163.062 146.991 163.043 147.124 163.031C148.652 162.879 150.183 163.291 151.425 164.189C152.15 164.711 152.753 165.384 153.19 166.161C153.223 166.215 153.253 166.27 153.28 166.327C153.525 166.785 153.71 167.272 153.83 167.777C153.942 168.25 154 168.733 154 169.218H154Z" fill="#2F2E41"/>
<path opacity="0.2" fill-rule="evenodd" clip-rule="evenodd" d="M151 151L152.413 157.077L161 164L153.419 156.744L151 151Z" fill="black"/>
<path opacity="0.2" fill-rule="evenodd" clip-rule="evenodd" d="M143 153L145.54 163.305L153 166L146.016 162.512L143 153Z" fill="black"/>
<path fill-rule="evenodd" clip-rule="evenodd" d="M163 132C158.213 129.85 152.801 129.237 148 131.547L148.619 126.113L158.469 124L163 132Z" fill="#2F2E41"/>
<path fill-rule="evenodd" clip-rule="evenodd" d="M203 182L167 176.081L167.441 174L203 182Z" fill="#3F3D56"/>
<path fill-rule="evenodd" clip-rule="evenodd" d="M172.211 177.306C171.931 177.577 171.594 177.778 171.226 177.892C170.858 178.006 170.47 178.03 170.091 177.963C169.713 177.896 169.354 177.74 169.044 177.506C168.734 177.273 168.48 176.968 168.303 176.617L166 172.05L166.916 170L171.852 173.263C172.172 173.474 172.44 173.758 172.637 174.093C172.835 174.427 172.955 174.804 172.99 175.194C173.024 175.584 172.972 175.977 172.837 176.343C172.702 176.709 172.488 177.039 172.211 177.306Z" fill="#FFB8B8"/>
<path fill-rule="evenodd" clip-rule="evenodd" d="M165.683 172.92L146.611 162.798C146.523 162.752 146.446 162.686 146.384 162.607C146.323 162.527 146.279 162.435 146.255 162.337L142.118 145.3C141.878 144.311 142.007 143.267 142.481 142.371C142.955 141.475 143.739 140.792 144.68 140.455L145.677 140.099C145.899 140.019 146.135 139.987 146.37 140.005C146.605 140.022 146.833 140.088 147.042 140.2C147.251 140.311 147.435 140.465 147.583 140.652C147.731 140.839 147.84 141.055 147.903 141.287L151.98 156.287C152.019 156.427 152.098 156.552 152.208 156.645L167.747 169.801C167.881 169.914 167.969 170.075 167.993 170.251C168.017 170.427 167.976 170.606 167.878 170.753L166.581 172.689C166.485 172.833 166.341 172.936 166.175 172.979C166.01 173.021 165.835 173 165.683 172.92H165.683Z" fill="#E6E6E6"/>
<path fill-rule="evenodd" clip-rule="evenodd" d="M198.83 182.988C199.005 183.02 199.186 182.986 199.335 182.893C199.483 182.799 199.586 182.654 199.622 182.489L199.987 180.761C200.022 180.595 199.986 180.423 199.887 180.283C199.788 180.143 199.634 180.045 199.459 180.012L194.17 179.012C193.995 178.979 193.813 179.014 193.665 179.107C193.517 179.201 193.413 179.346 193.378 179.511L193.013 181.24C192.996 181.321 192.996 181.406 193.013 181.488C193.03 181.57 193.064 181.648 193.113 181.717C193.162 181.787 193.225 181.846 193.298 181.893C193.372 181.939 193.454 181.972 193.541 181.988L198.83 182.988Z" fill="#E6E6E6"/>
</g>
</g>
<defs>
<clipPath id="clip0_0_6827">
<rect width="294" height="228" fill="white"/>
</clipPath>
</defs>
</svg>
