<svg width="285" height="228" viewBox="0 0 285 228" fill="none" xmlns="http://www.w3.org/2000/svg">
<g clip-path="url(#clip0_0_6707)">
<mask id="mask0_0_6707" style="mask-type:luminance" maskUnits="userSpaceOnUse" x="0" y="0" width="285" height="228">
<path fill-rule="evenodd" clip-rule="evenodd" d="M0 0H285V228H0V0Z" fill="white"/>
</mask>
<g mask="url(#mask0_0_6707)">
<path fill-rule="evenodd" clip-rule="evenodd" d="M235.24 203.68C235.262 203.643 235.286 203.608 235.312 203.573C235.375 203.424 235.455 203.281 235.55 203.149L243.431 192.1L249.924 183H261L260.217 184.096L258.823 186.051L254.504 192.103L245.248 205.077L253.827 222.348C254.178 223.051 253.58 224.062 252.499 224.602L248.361 226.667C247.95 226.877 247.497 226.991 247.036 227C246.454 227 245.968 226.783 245.764 226.372L235.099 204.901C235.015 204.703 234.984 204.486 235.008 204.272C235.033 204.058 235.113 203.854 235.24 203.68H235.24Z" fill="#84CC16"/>
<path fill-rule="evenodd" clip-rule="evenodd" d="M250.146 202.873L239.29 198.733C238.798 198.545 238.399 198.164 238.18 197.674C237.962 197.184 237.941 196.625 238.123 196.119L241.308 187.324C241.491 186.819 241.862 186.41 242.34 186.185C242.817 185.961 243.362 185.939 243.854 186.127L254.71 190.266C255.202 190.454 255.601 190.835 255.82 191.325C256.038 191.815 256.059 192.374 255.877 192.88L252.692 201.675C252.602 201.925 252.464 202.155 252.287 202.351C252.11 202.546 251.897 202.704 251.661 202.815C251.424 202.926 251.169 202.989 250.909 202.999C250.649 203.009 250.389 202.966 250.146 202.873H250.146Z" fill="#2F2E41"/>
<path fill-rule="evenodd" clip-rule="evenodd" d="M240.585 198C240.514 198 240.444 197.986 240.378 197.96H240.378C240.233 197.901 240.116 197.784 240.052 197.634C239.988 197.484 239.983 197.313 240.038 197.159L243.867 186.402C243.922 186.248 244.032 186.123 244.173 186.055C244.315 185.987 244.476 185.982 244.621 186.04C244.767 186.098 244.884 186.216 244.948 186.366C245.012 186.516 245.017 186.687 244.962 186.841L241.133 197.598C241.091 197.716 241.016 197.818 240.918 197.89C240.82 197.962 240.704 198 240.585 198V198Z" fill="white"/>
<path fill-rule="evenodd" clip-rule="evenodd" d="M259 225.643V186.357C258.999 186.32 259.002 186.284 259.007 186.248C259.025 185.792 259.171 185.352 259.427 184.981C259.683 184.611 260.038 184.326 260.447 184.162C260.709 184.054 260.987 183.999 261.268 184H265.732C266.333 184.001 266.91 184.249 267.335 184.691C267.76 185.133 267.999 185.732 268 186.357V225.643C267.999 226.268 267.76 226.867 267.335 227.309C266.91 227.751 266.333 227.999 265.732 228H261.268C260.667 227.999 260.09 227.751 259.665 227.309C259.24 226.867 259.001 226.268 259 225.643H259Z" fill="#84CC16"/>
<path fill-rule="evenodd" clip-rule="evenodd" d="M256 201.035V191.965C256.001 191.444 256.216 190.945 256.598 190.576C256.98 190.208 257.499 190.001 258.039 190H269.961C270.501 190.001 271.02 190.208 271.402 190.576C271.784 190.945 271.999 191.444 272 191.965V201.035C271.999 201.556 271.784 202.055 271.402 202.424C271.02 202.792 270.501 202.999 269.961 203H258.039C257.499 202.999 256.98 202.792 256.598 202.424C256.216 202.055 256.001 201.556 256 201.035V201.035Z" fill="#2F2E41"/>
<path fill-rule="evenodd" clip-rule="evenodd" d="M265.5 202C265.367 202 265.24 201.933 265.147 201.814C265.053 201.695 265 201.534 265 201.366V189.634C265 189.466 265.053 189.305 265.146 189.186C265.24 189.067 265.367 189 265.5 189C265.633 189 265.76 189.067 265.854 189.186C265.947 189.305 266 189.466 266 189.634V201.366C266 201.534 265.947 201.695 265.853 201.814C265.76 201.933 265.633 202 265.5 202Z" fill="white"/>
<path fill-rule="evenodd" clip-rule="evenodd" d="M243.464 155.743L209.268 138.395C208.716 138.113 208.301 137.628 208.111 137.045C207.922 136.463 207.975 135.83 208.259 135.286L210.374 131.248C210.66 130.705 211.153 130.295 211.745 130.11C212.337 129.924 212.98 129.976 213.533 130.255L247.729 147.603C247.901 147.69 248.061 147.798 248.204 147.926C248.597 148.265 248.863 148.723 248.96 149.229C249.056 149.734 248.978 150.256 248.738 150.713L246.623 154.751C246.482 155.02 246.289 155.26 246.053 155.456C245.818 155.652 245.545 155.8 245.252 155.892C245.019 155.963 244.777 156 244.533 156C244.161 156 243.794 155.912 243.464 155.743V155.743Z" fill="#84CC16"/>
<path fill-rule="evenodd" clip-rule="evenodd" d="M244.64 157.758L228.273 151.214C227.727 150.936 227.311 150.45 227.118 149.862C226.925 149.274 226.97 148.633 227.243 148.078L230.975 140.288C231.251 139.735 231.731 139.314 232.311 139.118C232.603 139.02 232.911 138.983 233.218 139.007C233.524 139.032 233.823 139.118 234.096 139.26L248.876 148.334C248.933 148.364 248.986 148.401 249.033 148.445C249.41 148.789 249.598 149.613 249.748 150.275L249.772 150.377C249.813 150.555 249.849 150.708 249.885 150.816L249.897 150.857C249.91 150.9 249.923 150.946 249.933 150.987C250.065 151.527 250.002 152.097 249.754 152.594L247.716 156.707C247.522 157.095 247.225 157.42 246.86 157.648C246.495 157.876 246.074 157.998 245.645 158C245.296 158.001 244.952 157.918 244.64 157.758V157.758Z" fill="#2F2E41"/>
<path fill-rule="evenodd" clip-rule="evenodd" d="M256.5 137C265.613 137 273 129.389 273 120C273 110.611 265.613 103 256.5 103C247.387 103 240 110.611 240 120C240 129.389 247.387 137 256.5 137Z" fill="#84CC16"/>
<path fill-rule="evenodd" clip-rule="evenodd" d="M256.984 129L257 128.354C255.926 128.32 254.979 128.245 254.268 127.663C254.066 127.489 253.9 127.268 253.782 127.015C253.663 126.763 253.594 126.485 253.58 126.2C253.568 126.026 253.591 125.851 253.649 125.689C253.707 125.527 253.797 125.382 253.913 125.265C254.385 124.819 255.145 124.963 255.699 125.247L256.177 125.492L255.261 118L254.689 118.088L255.468 124.461C254.716 124.213 254.018 124.32 253.541 124.772C253.357 124.951 253.213 125.175 253.12 125.427C253.027 125.679 252.987 125.951 253.004 126.223C253.02 126.606 253.112 126.979 253.271 127.318C253.431 127.657 253.655 127.953 253.927 128.185C254.841 128.933 256.029 128.97 256.984 129H256.984Z" fill="#2F2E41"/>
<path fill-rule="evenodd" clip-rule="evenodd" d="M252 118H249V119H252V118Z" fill="#2F2E41"/>
<path fill-rule="evenodd" clip-rule="evenodd" d="M263 118H260V119H263V118Z" fill="#2F2E41"/>
<path fill-rule="evenodd" clip-rule="evenodd" d="M241.98 191.992C240.868 191.928 240 190.117 240 187.845V158.641C240 157.219 240.18 155.802 240.537 154.425L240.537 154.424C240.667 153.929 240.821 153.437 240.995 152.962C242.051 150.037 243.907 147.46 246.354 145.517C246.631 145.293 246.92 145.077 247.213 144.874C248.639 143.878 250.211 143.106 251.876 142.587C251.83 142.382 251.806 142.172 251.806 141.962C251.807 141.177 252.122 140.424 252.683 139.868C253.243 139.313 254.003 139.001 254.796 139H259.204C259.997 139.001 260.757 139.313 261.318 139.868C261.878 140.424 262.194 141.177 262.194 141.962C262.194 142.172 262.171 142.381 262.125 142.586C265.569 143.666 268.577 145.805 270.713 148.691C272.848 151.578 273.999 155.063 274 158.641V187.845C274 190.175 273.101 192 271.954 192H242.046C242.024 192 242.002 191.998 241.98 191.992H241.98Z" fill="#2F2E41"/>
<path fill-rule="evenodd" clip-rule="evenodd" d="M260.969 194.82C260.774 194.48 260.668 194.098 260.66 193.708L260 155.452C259.995 155.145 260.05 154.841 260.163 154.556C260.277 154.271 260.446 154.01 260.661 153.79L260.661 153.79C260.876 153.569 261.132 153.393 261.415 153.271C261.699 153.148 262.004 153.083 262.313 153.077L266.944 153C267.527 152.99 268.094 153.195 268.533 153.576C268.973 153.956 269.254 154.485 269.322 155.06C269.332 155.136 269.337 155.213 269.337 155.29L270 193.549C270.009 194.167 269.77 194.764 269.336 195.209C268.903 195.653 268.309 195.909 267.685 195.921L263.055 196C262.633 196.006 262.216 195.9 261.85 195.692C261.483 195.485 261.179 195.183 260.969 194.82H260.969Z" fill="#84CC16"/>
<path fill-rule="evenodd" clip-rule="evenodd" d="M259.294 168.811C259.124 168.502 259.023 168.157 259 167.803L259.192 149.902C259.145 149.279 259.34 148.663 259.734 148.188C260.127 147.713 260.687 147.419 261.291 147.369L265.773 147.007C266.318 146.964 266.861 147.123 267.303 147.456C267.349 147.491 267.395 147.535 267.439 147.566C267.551 147.663 267.668 147.753 267.789 147.837L267.886 147.908C268.53 148.378 269.261 148.911 269.296 149.431L271.992 166.896C272.033 167.394 271.915 167.893 271.658 168.317C271.598 168.422 271.529 168.52 271.452 168.612C271.385 168.694 271.311 168.77 271.232 168.84C270.861 169.185 270.388 169.393 269.89 169.432L261.455 169.993C261.023 170.027 260.591 169.934 260.208 169.725C259.826 169.516 259.509 169.199 259.294 168.811V168.811Z" fill="#2F2E41"/>
<path fill-rule="evenodd" clip-rule="evenodd" d="M242.5 189C242.367 189 242.24 188.933 242.147 188.814C242.053 188.695 242 188.534 242 188.366V157.634C242 157.466 242.053 157.304 242.146 157.186C242.24 157.067 242.367 157 242.5 157C242.633 157 242.76 157.067 242.854 157.186C242.947 157.304 243 157.466 243 157.634V188.366C243 188.534 242.947 188.695 242.853 188.814C242.76 188.933 242.633 189 242.5 189Z" fill="white"/>
<path fill-rule="evenodd" clip-rule="evenodd" d="M272.304 114.925L242.832 104.427C242.676 104.371 242.532 104.286 242.41 104.176C242.287 104.067 242.188 103.934 242.118 103.787C242.048 103.64 242.008 103.481 242.001 103.319C241.994 103.157 242.02 102.996 242.077 102.843L242.177 102.384C244.479 96.2583 252.107 92.4028 258.399 94.644L267.468 97.8744C273.76 100.116 276.494 107.37 274.193 113.496L273.93 114.19C273.815 114.497 273.578 114.747 273.273 114.885C272.968 115.023 272.62 115.037 272.304 114.925H272.304Z" fill="#2F2E41"/>
<path fill-rule="evenodd" clip-rule="evenodd" d="M274.076 115.735C233.47 117.258 229.922 112.07 242.294 103.911L244.919 99L275 110.153L274.076 115.735Z" fill="#2F2E41"/>
<path fill-rule="evenodd" clip-rule="evenodd" d="M265.219 97.0049C265.457 96.2115 264.578 95.2455 263.256 94.8474C261.934 94.4493 260.669 94.7698 260.431 95.5633C260.193 96.3568 261.072 97.3227 262.394 97.7208C263.716 98.1189 264.981 97.7984 265.219 97.0049Z" fill="#2F2E41"/>
<path fill-rule="evenodd" clip-rule="evenodd" d="M131.936 74.306C127.972 82.5313 121.798 89.4665 114.118 94.3206C106.438 99.1748 97.5611 101.753 88.5 101.76C68.0334 101.76 50.4984 88.8407 43.4802 70.6554C41.3052 65.0284 40.1926 59.0402 40.2 53C40.2 26.1141 61.8678 4.24 88.5 4.24C115.132 4.24 136.8 26.1141 136.8 53C136.809 60.3835 135.146 67.6712 131.936 74.306ZM88.5 0C59.5494 0 36 23.7737 36 53C35.9918 60.4812 37.5609 67.8786 40.6032 74.7003C48.831 93.1358 67.2018 106 88.5 106C102.422 105.992 115.771 100.406 125.615 90.4681C135.459 80.5303 140.992 67.0541 141 53C141 23.7737 117.446 0 88.5 0Z" fill="#E6E6E6"/>
<path fill-rule="evenodd" clip-rule="evenodd" d="M88.9686 105C78.9784 104.992 69.1942 102.193 60.7458 96.9263C52.2974 91.6595 45.5293 84.1398 41.2229 75.2353C41.0511 74.8803 40.9764 74.4869 41.0065 74.0945C41.0366 73.702 41.1703 73.3242 41.3943 72.9988L41.4226 72.9579C41.6463 72.6377 41.9514 72.3814 42.3071 72.2145C42.6629 72.0476 43.0568 71.976 43.4494 72.0071C43.8419 72.0381 44.2193 72.1706 44.5437 72.3912C44.8681 72.6118 45.128 72.9129 45.2973 73.2641C53.299 89.8232 70.441 100.523 88.9686 100.523C97.4354 100.502 105.749 98.2942 113.086 94.1192C120.423 89.9443 126.527 83.9471 130.793 76.7227C130.991 76.3834 131.277 76.102 131.621 75.9072C131.965 75.7123 132.355 75.6109 132.752 75.6133C133.144 75.6123 133.53 75.7147 133.869 75.9099C134.208 76.1052 134.488 76.3862 134.681 76.7241L134.705 76.7668C134.9 77.1077 135.002 77.4931 135 77.8848C134.998 78.2765 134.892 78.6608 134.693 78.9997C130.026 86.8935 123.352 93.4455 115.331 98.0061C107.311 102.567 98.223 104.978 88.9686 105H88.9686Z" fill="#84CC16"/>
<path fill-rule="evenodd" clip-rule="evenodd" d="M101.255 54.4969C99.5255 54.4969 97.8348 55.0099 96.3967 55.9711C94.9586 56.9322 93.8377 58.2982 93.1758 59.8965C92.5139 61.4948 92.3408 63.2535 92.6782 64.9502C93.0156 66.6469 93.8485 68.2055 95.0715 69.4287C96.2945 70.652 97.8527 71.4851 99.549 71.8226C101.245 72.1601 103.004 71.9868 104.602 71.3248C106.199 70.6628 107.565 69.5417 108.526 68.1033C109.487 66.6649 110 64.9737 110 63.2438C110 62.0951 109.774 60.9577 109.334 59.8965C108.895 58.8353 108.251 57.8711 107.439 57.0588C106.627 56.2466 105.663 55.6023 104.602 55.1628C103.541 54.7232 102.404 54.4969 101.255 54.4969ZM101.255 57.1219C102.682 57.1127 104.067 57.599 105.176 58.4978C106.284 59.3967 107.045 60.6524 107.331 62.0505C107.617 63.4487 107.408 64.9026 106.741 66.1641C106.074 67.4256 104.99 68.4165 103.674 68.9676C102.358 69.5187 100.892 69.5958 99.5251 69.1858C98.1585 68.7758 96.9766 67.9041 96.1811 66.7195C95.3856 65.5349 95.0258 64.1109 95.1631 62.6905C95.3005 61.2701 95.9264 59.9414 96.9342 58.9313C97.499 58.3589 98.1717 57.9042 98.9134 57.5936C99.6551 57.283 100.451 57.1227 101.255 57.1219ZM94.9846 41.9814C95.7761 41.9854 96.5367 41.6748 97.0992 41.1178C97.6617 40.5609 97.9799 39.8033 97.9839 39.0117C97.984 39.0016 97.984 38.9915 97.9839 38.9814C97.9876 38.5936 97.9149 38.2088 97.77 37.8491C97.625 37.4894 97.4106 37.1618 97.1391 36.885C96.8676 36.6082 96.5442 36.3875 96.1874 36.2357C95.8306 36.0839 95.4474 36.0038 95.0597 36.0001C95.0409 36 95.0221 36 95.0034 36.0001C94.2104 35.9927 93.4469 36.3006 92.8809 36.8561C92.3149 37.4117 91.9927 38.1694 91.9853 38.9625C91.9778 39.7556 92.2856 40.5193 92.841 41.0854C93.3965 41.6515 94.154 41.9738 94.947 41.9812C94.9595 41.9814 94.9721 41.9814 94.9846 41.9814ZM76.7543 54.4969C75.0238 54.496 73.3319 55.0084 71.8925 55.9692C70.4531 56.9301 69.3309 58.2963 68.6678 59.8951C68.0047 61.4938 67.8305 63.2534 68.1672 64.9512C68.5039 66.649 69.3364 68.2088 70.5594 69.4334C71.7824 70.658 73.341 71.4923 75.038 71.8309C76.7351 72.1695 78.4945 71.9971 80.0936 71.3356C81.6927 70.6741 83.0598 69.5531 84.022 68.1145C84.9842 66.6758 85.4983 64.984 85.4992 63.2532C85.5004 60.9321 84.5798 58.7056 82.9398 57.0635C81.2998 55.4214 79.0748 54.4982 76.7543 54.4969H76.7543ZM76.7543 57.1219C78.181 57.1127 79.5666 57.599 80.6747 58.4979C81.7828 59.3967 82.5447 60.6524 82.8302 62.0506C83.1157 63.4487 82.9072 64.9026 82.2403 66.1641C81.5734 67.4256 80.4894 68.4165 79.1733 68.9676C77.8573 69.5187 76.3909 69.5958 75.0243 69.1858C73.6577 68.7758 72.4758 67.9041 71.6803 66.7195C70.8848 65.5349 70.525 64.1109 70.6623 62.6905C70.7997 61.2701 71.4257 59.9414 72.4334 58.9313C72.9982 58.3589 73.6709 57.9042 74.4126 57.5936C75.1543 57.283 75.9502 57.1227 76.7543 57.1219Z" fill="#E6E6E6"/>
<path fill-rule="evenodd" clip-rule="evenodd" d="M99.4978 48.2381H94.9983L92.233 42.5143C92.0099 42.1129 91.6981 41.7696 91.3223 41.5114C90.9464 41.2532 90.5167 41.0871 90.067 41.0261C89.6173 40.9652 89.1598 41.0111 88.7304 41.1603C88.3011 41.3095 87.9117 41.5578 87.5929 41.8857L80.8718 48.4667C80.3216 49.0372 80.0093 49.8014 80 50.6C80 52.2572 81.1811 52.8477 81.7342 53.181C85.9993 55.6762 87.4991 55.9524 87.4991 57.2V63.4762C87.4991 63.8803 87.6571 64.2679 87.9384 64.5537C88.2197 64.8395 88.6012 65 88.999 65C89.3967 65 89.7782 64.8395 90.0595 64.5537C90.3408 64.2679 90.4988 63.8803 90.4988 63.4762V54.9048C90.4988 53.6476 87.6491 52.6191 85.9712 51.2857L90.555 46.381C92.308 49.0953 93.1141 51.2857 94.1171 51.2857H99.4978C99.8955 51.2864 100.277 51.1265 100.559 50.8412C100.841 50.5559 100.999 50.1685 101 49.7644C101.001 49.3602 100.843 48.9724 100.562 48.6862C100.282 48.4 99.9004 48.2388 99.5026 48.2381H99.4978V48.2381Z" fill="#E6E6E6"/>
<path fill-rule="evenodd" clip-rule="evenodd" d="M46.4074 134C45.1231 134 44.0598 137.786 43.8537 142.75H19.1463C18.9402 137.786 17.8769 134 16.5926 134C15.1608 134 14 138.701 14 144.5C14 150.299 15.1608 155 16.5926 155C17.8769 155 18.9402 151.214 19.1463 146.25H43.8537C44.0598 151.214 45.1231 155 46.4074 155C47.8392 155 49 150.299 49 144.5C49 138.701 47.8392 134 46.4074 134Z" fill="#E6E6E6"/>
<path fill-rule="evenodd" clip-rule="evenodd" d="M30.9902 173.476C23.4744 173.437 16.2805 170.371 10.9865 164.95C5.69237 159.529 2.73022 152.196 2.74967 144.559C2.76911 136.921 5.76857 129.604 11.0902 124.211C16.4118 118.818 23.6211 115.789 31.1371 115.79C38.653 115.79 45.862 118.819 51.1829 124.213C56.5039 129.607 59.5024 136.925 59.5208 144.562C59.5393 152.199 56.5762 159.532 51.2814 164.953C45.9867 170.373 38.7924 173.438 31.2766 173.476C31.1811 173.477 31.0857 173.477 30.9902 173.476ZM58.0714 129.152C54.3973 122.461 48.4487 117.36 41.3397 114.804C34.2307 112.248 26.4486 112.413 19.4506 115.268C12.4526 118.123 6.71864 123.471 3.32229 130.313C-0.0740598 137.154 -0.89987 145.019 0.99949 152.434C2.89884 159.85 7.39312 166.307 13.6408 170.598C19.8885 174.889 27.4611 176.718 34.9408 175.744C42.4205 174.77 49.2943 171.059 54.2752 165.306C59.256 159.553 62.0024 152.152 62 144.49C61.9983 139.121 60.646 133.841 58.0714 129.152Z" fill="#E6E6E6"/>
<path fill-rule="evenodd" clip-rule="evenodd" d="M31.5251 176C25.5553 176.003 19.7081 174.313 14.6682 171.127C14.4165 170.968 14.2222 170.732 14.1134 170.456L14.0976 170.415C13.9882 170.141 13.9702 169.839 14.0463 169.554C14.1224 169.268 14.2885 169.015 14.5202 168.831C14.7441 168.644 15.0227 168.533 15.3147 168.515C15.6067 168.498 15.8967 168.574 16.142 168.732C21.4989 172.127 27.8369 173.654 34.1602 173.073C40.4835 172.492 46.4338 169.837 51.0763 165.523C55.7188 161.21 58.7904 155.484 59.8087 149.244C60.8269 143.004 59.734 136.604 56.7018 131.05C56.5596 130.795 56.5034 130.502 56.5414 130.213C56.5794 129.924 56.7097 129.655 56.9129 129.445C57.1137 129.228 57.3792 129.081 57.6705 129.025C57.9618 128.969 58.2634 129.008 58.5309 129.136L58.5701 129.154C58.8384 129.279 59.0599 129.486 59.2027 129.744C61.7982 134.516 63.1044 139.877 62.9935 145.302C62.8825 150.728 61.3581 156.032 58.5696 160.694C55.7811 165.357 51.824 169.219 47.0858 171.902C42.3477 174.585 36.9908 175.997 31.5398 176L31.5251 176Z" fill="#84CC16"/>
<path fill-rule="evenodd" clip-rule="evenodd" d="M152.323 172.758C148.411 173.661 144.356 173.715 140.422 172.916C136.488 172.117 132.764 170.483 129.494 168.122C126.224 165.76 123.481 162.724 121.444 159.211C119.407 155.698 118.123 151.788 117.675 147.737C117.226 143.685 117.624 139.583 118.842 135.698C120.061 131.813 122.072 128.234 124.744 125.193C127.417 122.152 130.69 119.718 134.351 118.051C138.012 116.384 141.978 115.521 145.99 115.519H146.007C153.019 115.518 159.785 118.144 165.013 122.894C170.24 127.644 173.562 134.186 174.343 141.268C175.125 148.351 173.311 155.477 169.249 161.287C165.187 167.096 159.161 171.18 152.323 172.758ZM146.006 113C141.936 112.998 137.905 113.811 134.143 115.393C130.382 116.975 126.964 119.295 124.084 122.219C121.205 125.144 118.921 128.616 117.362 132.438C115.803 136.26 115.001 140.357 115 144.494C114.999 148.632 115.8 152.729 117.358 156.551C118.915 160.374 121.198 163.847 124.076 166.773C126.955 169.698 130.372 172.019 134.133 173.602C137.894 175.186 141.925 176 145.995 176H146.006C146.207 176 146.404 176 146.605 175.992C154.772 175.832 162.546 172.402 168.237 166.447C173.929 160.493 177.077 152.496 176.999 144.194C176.92 135.893 173.62 127.959 167.816 122.118C162.012 116.276 154.174 112.999 146.006 113V113Z" fill="#E6E6E6"/>
<path fill-rule="evenodd" clip-rule="evenodd" d="M146.795 176C138.949 176 131.379 173.14 125.543 167.971C119.707 162.801 116.016 155.687 115.181 147.997C114.345 140.307 116.424 132.584 121.018 126.314C125.611 120.044 132.395 115.669 140.063 114.032C140.252 113.992 140.447 113.99 140.636 114.024L140.702 114.037C141.021 114.098 141.308 114.265 141.515 114.51C141.723 114.755 141.839 115.064 141.842 115.383C141.846 115.703 141.738 116.013 141.536 116.263C141.334 116.513 141.051 116.687 140.735 116.755C133.744 118.232 127.555 122.207 123.361 127.913C119.166 133.619 117.262 140.654 118.015 147.661C118.768 154.669 122.125 161.154 127.439 165.867C132.754 170.581 139.65 173.189 146.799 173.19C147.079 173.188 147.351 173.186 147.627 173.178C147.935 173.166 148.237 173.26 148.481 173.446C148.725 173.631 148.895 173.895 148.962 174.191C149.035 174.478 149.003 174.781 148.871 175.046C148.739 175.311 148.516 175.522 148.242 175.641V175.641C148.055 175.725 147.868 175.808 147.681 175.889C147.522 175.958 147.351 175.995 147.178 175.998C147.051 176 146.924 176 146.795 176V176Z" fill="#84CC16"/>
<path fill-rule="evenodd" clip-rule="evenodd" d="M161.451 142.782C160.629 142.74 159.816 142.972 159.136 143.444C158.457 143.915 157.947 144.599 157.686 145.392H154.647L152.428 138.616C152.346 138.362 152.187 138.141 151.974 137.985C151.761 137.828 151.504 137.744 151.241 137.744H151.218C150.951 137.748 150.692 137.84 150.481 138.006C150.27 138.172 150.117 138.402 150.046 138.664L146.569 150.986L142.484 126.064C142.436 125.776 142.293 125.513 142.077 125.319C141.861 125.125 141.586 125.013 141.298 125.001C141.011 124.989 140.728 125.078 140.497 125.253C140.266 125.427 140.101 125.678 140.031 125.961L135.89 145.392H131.25C130.918 145.392 130.601 145.526 130.366 145.764C130.132 146.002 130 146.325 130 146.662C130 146.999 130.132 147.321 130.366 147.559C130.601 147.798 130.918 147.931 131.25 147.931H136.875C137.153 147.932 137.424 147.837 137.643 147.663C137.863 147.489 138.018 147.246 138.085 146.971L141.007 132.515L145.015 156.945C145.061 157.229 145.201 157.489 145.413 157.681C145.625 157.874 145.895 157.986 146.179 158H146.249C146.521 158 146.785 157.91 147.002 157.744C147.219 157.578 147.377 157.345 147.452 157.08L151.335 143.306L152.561 147.059C152.645 147.312 152.804 147.532 153.017 147.688C153.23 147.845 153.486 147.93 153.749 147.931H157.741C157.979 148.573 158.384 149.138 158.913 149.565C159.441 149.993 160.074 150.267 160.743 150.36C161.413 150.453 162.094 150.36 162.716 150.092C163.338 149.823 163.877 149.389 164.276 148.836C164.675 148.282 164.919 147.629 164.983 146.946C165.047 146.263 164.928 145.574 164.639 144.954C164.349 144.334 163.9 143.805 163.339 143.423C162.778 143.04 162.126 142.819 161.451 142.782Z" fill="#E6E6E6"/>
<path fill-rule="evenodd" clip-rule="evenodd" d="M284.687 228H227.314C227.23 228 227.151 227.947 227.092 227.854C227.033 227.76 227 227.633 227 227.5C227 227.367 227.033 227.24 227.092 227.146C227.151 227.053 227.23 227 227.314 227H284.687C284.77 227 284.849 227.053 284.908 227.146C284.967 227.24 285 227.367 285 227.5C285 227.633 284.967 227.76 284.908 227.854C284.849 227.947 284.77 228 284.687 228V228Z" fill="#3F3D56"/>
</g>
</g>
<defs>
<clipPath id="clip0_0_6707">
<rect width="285" height="228" fill="white"/>
</clipPath>
</defs>
</svg>
